<svg width="12" height="23" viewBox="0 0 12 23" fill="none" xmlns="http://www.w3.org/2000/svg">
<path d="M2.41694 22.2917C2.05673 22.2924 1.70764 22.1669 1.43027 21.9371C1.27416 21.8077 1.14512 21.6487 1.05054 21.4693C0.955956 21.29 0.897687 21.0937 0.87907 20.8918C0.860453 20.6899 0.881854 20.4863 0.942048 20.2926C1.00224 20.099 1.10004 19.9191 1.22985 19.7633L8.13652 11.5L1.47652 3.22125C1.34846 3.06355 1.25283 2.8821 1.19512 2.68733C1.13742 2.49256 1.11877 2.2883 1.14026 2.0863C1.16175 1.88429 1.22295 1.68853 1.32034 1.51026C1.41774 1.33199 1.5494 1.17472 1.70777 1.04749C1.86728 0.907147 2.05408 0.801284 2.25644 0.736551C2.4588 0.671818 2.67236 0.649612 2.88372 0.671327C3.09507 0.693041 3.29965 0.758207 3.48462 0.862735C3.6696 0.967262 3.83096 1.1089 3.95861 1.27874L11.4049 10.5287C11.6316 10.8046 11.7556 11.1506 11.7556 11.5077C11.7556 11.8648 11.6316 12.2108 11.4049 12.4867L3.69652 21.7367C3.54187 21.9232 3.34541 22.0707 3.12308 22.1671C2.90076 22.2636 2.65884 22.3062 2.41694 22.2917Z" fill="black"/>
</svg>
