<svg width="12" height="23" viewBox="0 0 12 23" fill="none" xmlns="http://www.w3.org/2000/svg">
<path d="M9.58331 22.2917C9.94352 22.2924 10.2926 22.1669 10.57 21.9371C10.7261 21.8077 10.8551 21.6487 10.9497 21.4693C11.0443 21.29 11.1026 21.0937 11.1212 20.8918C11.1398 20.6899 11.1184 20.4863 11.0582 20.2926C10.998 20.099 10.9002 19.9191 10.7704 19.7633L3.86372 11.5L10.5237 3.22125C10.6518 3.06355 10.7474 2.8821 10.8051 2.68733C10.8628 2.49256 10.8815 2.2883 10.86 2.0863C10.8385 1.88429 10.7773 1.68853 10.6799 1.51026C10.5825 1.33199 10.4508 1.17472 10.2925 1.04749C10.133 0.907147 9.94616 0.801284 9.7438 0.736551C9.54144 0.671818 9.32788 0.649612 9.11653 0.671327C8.90518 0.693041 8.70059 0.758207 8.51562 0.862735C8.33065 0.967262 8.16928 1.1089 8.04164 1.27874L0.595389 10.5287C0.368638 10.8046 0.244679 11.1506 0.244679 11.5077C0.244679 11.8648 0.368638 12.2108 0.595389 12.4867L8.30372 21.7367C8.45838 21.9232 8.65484 22.0707 8.87716 22.1671C9.09948 22.2636 9.34141 22.3062 9.58331 22.2917Z" fill="black"/>
</svg>
