<svg width="19" height="18" viewBox="0 0 19 18" fill="none" xmlns="http://www.w3.org/2000/svg">
<path fill-rule="evenodd" clip-rule="evenodd" d="M18.7499 8.99996C18.7499 8.68502 18.6281 8.38297 18.4112 8.16027C18.1944 7.93757 17.9003 7.81246 17.5936 7.81246L4.19731 7.81247L9.16224 2.71572C9.26975 2.60531 9.35502 2.47423 9.4132 2.32998C9.47139 2.18572 9.50133 2.03111 9.50133 1.87496C9.50133 1.71882 9.47139 1.56421 9.4132 1.41995C9.35502 1.2757 9.26975 1.14462 9.16224 1.03422C9.05474 0.923806 8.92712 0.836225 8.78666 0.776471C8.6462 0.71672 8.49565 0.685966 8.34362 0.685966C8.19159 0.685966 8.04104 0.71672 7.90058 0.776471C7.76012 0.836225 7.6325 0.923806 7.52499 1.03422L0.587494 8.15921C0.479816 8.26952 0.394386 8.40057 0.336096 8.54484C0.277806 8.68911 0.247802 8.84377 0.247802 8.99996C0.247802 9.15616 0.277806 9.31083 0.336096 9.4551C0.394386 9.59936 0.479816 9.73041 0.587494 9.84072L7.525 16.9657C7.74211 17.1887 8.03658 17.314 8.34362 17.314C8.65066 17.314 8.94513 17.1887 9.16225 16.9657C9.37936 16.7427 9.50133 16.4403 9.50133 16.125C9.50133 15.8096 9.37936 15.5072 9.16225 15.2842L4.19731 10.1875L17.5936 10.1875C17.9003 10.1875 18.1944 10.0624 18.4112 9.83965C18.6281 9.61695 18.7499 9.31491 18.7499 8.99996Z" fill="white"/>
</svg>
