<svg width="20" height="18" viewBox="0 0 20 18" fill="none" xmlns="http://www.w3.org/2000/svg">
<path fill-rule="evenodd" clip-rule="evenodd" d="M19.4999 9.00004C19.4999 9.31498 19.3748 9.61703 19.1521 9.83972C18.9294 10.0624 18.6274 10.1875 18.3124 10.1875H4.55405L9.65318 15.2843C9.76358 15.3947 9.85116 15.5258 9.91092 15.67C9.97067 15.8143 10.0014 15.9689 10.0014 16.125C10.0014 16.2812 9.97067 16.4358 9.91092 16.58C9.85116 16.7243 9.76358 16.8554 9.65318 16.9658C9.54277 17.0762 9.41169 17.1638 9.26744 17.2235C9.12318 17.2833 8.96857 17.314 8.81242 17.314C8.65628 17.314 8.50167 17.2833 8.35741 17.2235C8.21316 17.1638 8.08208 17.0762 7.97167 16.9658L0.846675 9.84079C0.736088 9.73048 0.648348 9.59943 0.588483 9.45516C0.528617 9.31089 0.497803 9.15623 0.497803 9.00004C0.497803 8.84384 0.528617 8.68917 0.588483 8.5449C0.648348 8.40064 0.736088 8.26959 0.846675 8.15928L7.97167 1.03429C8.19466 0.811305 8.49708 0.686035 8.81242 0.686035C9.12777 0.686035 9.43019 0.811305 9.65318 1.03429C9.87616 1.25727 10.0014 1.55969 10.0014 1.87504C10.0014 2.19038 9.87616 2.49281 9.65318 2.71579L4.55405 7.81253H18.3124C18.6274 7.81253 18.9294 7.93765 19.1521 8.16035C19.3748 8.38305 19.4999 8.68509 19.4999 9.00004Z" fill="white"/>
</svg>
