<svg width="26" height="26" viewBox="0 0 26 26" fill="none" xmlns="http://www.w3.org/2000/svg">
<g clip-path="url(#clip0)">
<path d="M21.6533 13.6403C21.0492 12.8592 20.1377 12.3227 18.9188 12.0311C20.471 11.2393 21.1532 9.89554 20.9659 7.99947C20.9033 7.31192 20.7133 6.71604 20.3954 6.21095C20.0773 5.70576 19.6481 5.29962 19.1061 4.99237C18.5645 4.68474 17.9754 4.45056 17.3403 4.28911C16.705 4.12766 15.9757 4.01044 15.1527 3.93759V0H12.7466V3.82819C12.33 3.82819 11.6946 3.83859 10.8405 3.85944V0H8.43409V3.93759C8.09023 3.94805 7.58509 3.95335 6.91844 3.95335L3.60596 3.93759V6.50019H5.34024C6.13194 6.50019 6.59549 6.85445 6.73089 7.56269V12.0472C6.8352 12.0472 6.91844 12.0526 6.981 12.063H6.73089V18.3441C6.64765 18.8752 6.3456 19.1411 5.8247 19.1411H4.09052L3.60607 22.0006H6.73116C6.92912 22.0006 7.2154 22.0032 7.59056 22.0079C7.96551 22.0132 8.24665 22.0158 8.4342 22.0158V26.0002H10.841V22.0626C11.2784 22.0733 11.9138 22.0784 12.7471 22.0784V26.0002H15.1532V22.0158C16.0076 21.9742 16.7654 21.8965 17.4266 21.7815C18.0881 21.6665 18.721 21.4871 19.3251 21.2421C19.9291 20.9975 20.4342 20.6926 20.8404 20.328C21.2468 19.9637 21.5825 19.5 21.8485 18.9374C22.1138 18.3748 22.2833 17.7237 22.3559 16.9839C22.4919 15.5364 22.2574 14.4217 21.6533 13.6403ZM10.8873 6.6716C10.9602 6.6716 11.166 6.66897 11.5045 6.66372C11.8432 6.65836 12.1244 6.65321 12.3483 6.64796C12.5723 6.64281 12.8744 6.65584 13.2548 6.68709C13.635 6.71834 13.9552 6.7601 14.2156 6.81209C14.4759 6.86408 14.7627 6.95006 15.0749 7.06986C15.3877 7.18955 15.6375 7.33545 15.8248 7.5073C16.0124 7.67915 16.1713 7.89801 16.3012 8.16366C16.4316 8.42926 16.4967 8.73393 16.4967 9.07762C16.4967 9.36932 16.4499 9.63503 16.3563 9.87474C16.2628 10.1143 16.1218 10.3149 15.9346 10.4763C15.7472 10.6378 15.5541 10.7786 15.3562 10.8983C15.1584 11.018 14.9056 11.1144 14.5984 11.1872C14.2913 11.2602 14.0231 11.3175 13.794 11.3591C13.5648 11.4008 13.2784 11.4295 12.9346 11.4451C12.5908 11.4606 12.3303 11.4712 12.1533 11.4764C11.9761 11.4815 11.734 11.4815 11.4266 11.4764C11.1191 11.4712 10.9397 11.4685 10.8875 11.4685V6.67155H10.8873V6.6716ZM17.458 17.3123C17.3587 17.552 17.2313 17.7604 17.0752 17.9376C16.9188 18.1144 16.713 18.2708 16.4579 18.4061C16.2028 18.5417 15.9552 18.6509 15.7158 18.7342C15.4761 18.8179 15.1869 18.8904 14.8487 18.9531C14.5097 19.0157 14.213 19.0597 13.9575 19.0859C13.7025 19.112 13.3979 19.1327 13.0436 19.1485C12.6895 19.1638 12.4133 19.1718 12.2155 19.1718C12.0175 19.1718 11.7675 19.1689 11.4654 19.1638C11.1631 19.159 10.9706 19.1563 10.8872 19.1563V13.8748C10.9704 13.8748 11.2178 13.8697 11.6294 13.8591C12.041 13.8486 12.3768 13.8437 12.6372 13.8437C12.8976 13.8437 13.2571 13.8591 13.7156 13.8905C14.1737 13.9216 14.5592 13.9683 14.8719 14.0308C15.1843 14.0934 15.5252 14.1896 15.8953 14.3199C16.265 14.4501 16.5646 14.6089 16.7939 14.7964C17.0231 14.9842 17.2157 15.2234 17.3719 15.5152C17.5285 15.8068 17.6066 16.1402 17.6066 16.5153C17.6065 16.8073 17.5571 17.0725 17.458 17.3123Z" fill="#696CA1"/>
</g>
<defs>
<clipPath id="clip0">
<rect width="26" height="26" fill="white"/>
</clipPath>
</defs>
</svg>
