<svg width="60" height="60" viewBox="0 0 60 60" fill="none" xmlns="http://www.w3.org/2000/svg">
<path d="M29.9999 0C13.4314 0 0 13.4314 0 29.9999C0 46.5685 13.4314 59.9999 29.9999 59.9999C46.5685 59.9999 59.9999 46.5685 59.9999 29.9999C59.9813 13.4392 46.5608 0.0187092 29.9999 0Z" fill="#FFC107"/>
<path d="M31.3045 44.348H22.174C21.4536 44.348 20.8696 43.764 20.8696 43.0436V16.9567C20.8696 16.2364 21.4536 15.6523 22.174 15.6523H31.3045C35.6267 15.6542 39.129 19.1597 39.1271 23.4818C39.126 26.1037 37.812 28.5508 35.6271 30.0001C39.2289 32.3893 40.2119 37.246 37.8228 40.8479C36.3735 43.0329 33.9263 44.3468 31.3045 44.348ZM23.4784 41.7392H31.3045C34.186 41.7392 36.5219 39.4033 36.5219 36.5218C36.5219 33.6403 34.186 31.3045 31.3045 31.3045H23.4784V41.7392ZM23.4784 28.6959H31.3045C34.186 28.6959 36.5219 26.3599 36.5219 23.4784C36.5219 20.597 34.186 18.261 31.3045 18.261H23.4784V28.6959Z" fill="#FAFAFA"/>
<path d="M24.7829 18.2609C24.0625 18.2609 23.4785 17.6769 23.4785 16.9565V14.3478C23.4785 13.6275 24.0625 13.0435 24.7829 13.0435C25.5033 13.0435 26.0873 13.6275 26.0873 14.3478V16.9565C26.0872 17.677 25.5033 18.2609 24.7829 18.2609Z" fill="#FAFAFA"/>
<path d="M30.0002 18.2609C29.2798 18.2609 28.6958 17.6769 28.6958 16.9565V14.3478C28.6958 13.6275 29.2798 13.0435 30.0002 13.0435C30.7206 13.0435 31.3046 13.6275 31.3046 14.3478V16.9565C31.3046 17.677 30.7206 18.2609 30.0002 18.2609Z" fill="#FAFAFA"/>
<path d="M24.7829 46.9567C24.0625 46.9567 23.4785 46.3727 23.4785 45.6523V43.0436C23.4785 42.3233 24.0625 41.7393 24.7829 41.7393C25.5033 41.7393 26.0873 42.3233 26.0873 43.0436V45.6523C26.0872 46.3727 25.5033 46.9567 24.7829 46.9567Z" fill="#FAFAFA"/>
<path d="M30.0002 46.9567C29.2798 46.9567 28.6958 46.3727 28.6958 45.6523V43.0436C28.6958 42.3233 29.2798 41.7393 30.0002 41.7393C30.7206 41.7393 31.3046 42.3233 31.3046 43.0436V45.6523C31.3046 46.3727 30.7206 46.9567 30.0002 46.9567Z" fill="#FAFAFA"/>
</svg>
