<svg width="101" height="101" viewBox="0 0 101 101" fill="none" xmlns="http://www.w3.org/2000/svg">
<path d="M44 3.75278C48.0222 1.43055 52.9778 1.43055 57 3.75278L87.7343 21.4972C91.7565 23.8194 94.2343 28.1111 94.2343 32.7556V68.2444C94.2343 72.8889 91.7565 77.1805 87.7343 79.5028L57 97.2472C52.9778 99.5695 48.0222 99.5695 44 97.2472L13.2657 79.5028C9.2435 77.1805 6.76572 72.8889 6.76572 68.2444V32.7556C6.76572 28.1111 9.2435 23.8194 13.2657 21.4972L44 3.75278Z" fill="#FFE600" fill-opacity="0.11"/>
<g filter="url(#filter0_i)">
<path d="M44 13.5846C48.0223 11.2624 52.9778 11.2624 57 13.5846L79.2197 26.4131C83.2419 28.7354 85.7197 33.027 85.7197 37.6715V63.3285C85.7197 67.9729 83.2419 72.2646 79.2197 74.5868L57.0001 87.4153C52.9778 89.7376 48.0223 89.7376 44 87.4154L21.7804 74.5868C17.7582 72.2646 15.2804 67.973 15.2804 63.3285V37.6715C15.2804 33.027 17.7582 28.7354 21.7804 26.4131L44 13.5846Z" fill="#FFE600"/>
</g>
<path d="M53.3906 65.8926C53.7895 65.8926 54.1133 65.5688 54.1133 65.1699C54.1133 64.771 53.7895 64.4473 53.3906 64.4473C52.9918 64.4473 52.668 64.771 52.668 65.1699C52.668 65.5688 52.9918 65.8926 53.3906 65.8926Z" fill="#111348"/>
<path d="M59.1719 69C60.3674 69 61.3398 68.0275 61.3398 66.832V34.168C61.3398 32.9725 60.3674 32 59.1719 32H41.8281C40.6326 32 39.6602 32.9725 39.6602 34.168V66.832C39.6602 68.0275 40.6326 69 41.8281 69H59.1719ZM41.1055 34.168C41.1055 33.7694 41.4295 33.4453 41.8281 33.4453H59.1719C59.5705 33.4453 59.8945 33.7694 59.8945 34.168V36.7695H41.1055V34.168ZM41.1055 38.2148H59.8945V61.3398H41.1055V38.2148ZM41.1055 66.832V62.7852H59.8945V66.832C59.8945 67.2306 59.5705 67.5547 59.1719 67.5547H41.8281C41.4295 67.5547 41.1055 67.2306 41.1055 66.832Z" fill="#111348"/>
<path d="M47.6094 65.8926H50.5C50.8992 65.8926 51.2227 65.5691 51.2227 65.1699C51.2227 64.7708 50.8992 64.4473 50.5 64.4473H47.6094C47.2102 64.4473 46.8867 64.7708 46.8867 65.1699C46.8867 65.5691 47.2102 65.8926 47.6094 65.8926Z" fill="#111348"/>
<path d="M49.0547 39.6602H44.7188C44.3196 39.6602 43.9961 39.9837 43.9961 40.3828V44.7188C43.9961 45.1179 44.3196 45.4414 44.7188 45.4414H49.0547C49.4538 45.4414 49.7773 45.1179 49.7773 44.7188V40.3828C49.7773 39.9837 49.4538 39.6602 49.0547 39.6602ZM48.332 43.9961H45.4414V41.1055H48.332V43.9961Z" fill="#111348"/>
<path d="M49.0547 46.8867H44.7188C44.3196 46.8867 43.9961 47.2102 43.9961 47.6094V51.9453C43.9961 52.3445 44.3196 52.668 44.7188 52.668H49.0547C49.4538 52.668 49.7773 52.3445 49.7773 51.9453V47.6094C49.7773 47.2102 49.4538 46.8867 49.0547 46.8867ZM48.332 51.2227H45.4414V48.332H48.332V51.2227Z" fill="#111348"/>
<path d="M49.0547 54.1133H44.7188C44.3196 54.1133 43.9961 54.4368 43.9961 54.8359V59.1719C43.9961 59.571 44.3196 59.8945 44.7188 59.8945H49.0547C49.4538 59.8945 49.7773 59.571 49.7773 59.1719V54.8359C49.7773 54.4368 49.4538 54.1133 49.0547 54.1133ZM48.332 58.4492H45.4414V55.5586H48.332V58.4492Z" fill="#111348"/>
<path d="M56.2812 40.3828H51.9453C51.5462 40.3828 51.2227 40.7063 51.2227 41.1055C51.2227 41.5046 51.5462 41.8281 51.9453 41.8281H56.2812C56.6804 41.8281 57.0039 41.5046 57.0039 41.1055C57.0039 40.7063 56.6804 40.3828 56.2812 40.3828Z" fill="#111348"/>
<path d="M51.9453 44.7188H54.8359C55.2351 44.7188 55.5586 44.3952 55.5586 43.9961C55.5586 43.5969 55.2351 43.2734 54.8359 43.2734H51.9453C51.5462 43.2734 51.2227 43.5969 51.2227 43.9961C51.2227 44.3952 51.5462 44.7188 51.9453 44.7188Z" fill="#111348"/>
<path d="M51.9453 51.9453H54.8359C55.2351 51.9453 55.5586 51.6218 55.5586 51.2227C55.5586 50.8235 55.2351 50.5 54.8359 50.5H51.9453C51.5462 50.5 51.2227 50.8235 51.2227 51.2227C51.2227 51.6218 51.5462 51.9453 51.9453 51.9453Z" fill="#111348"/>
<path d="M54.8359 57.7266H51.9453C51.5462 57.7266 51.2227 58.0501 51.2227 58.4492C51.2227 58.8484 51.5462 59.1719 51.9453 59.1719H54.8359C55.2351 59.1719 55.5586 58.8484 55.5586 58.4492C55.5586 58.0501 55.2351 57.7266 54.8359 57.7266Z" fill="#111348"/>
<path d="M56.2812 47.6094H51.9453C51.5462 47.6094 51.2227 47.9329 51.2227 48.332C51.2227 48.7312 51.5462 49.0547 51.9453 49.0547H56.2812C56.6804 49.0547 57.0039 48.7312 57.0039 48.332C57.0039 47.9329 56.6804 47.6094 56.2812 47.6094Z" fill="#111348"/>
<path d="M56.2812 54.8359H51.9453C51.5462 54.8359 51.2227 55.1594 51.2227 55.5586C51.2227 55.9577 51.5462 56.2812 51.9453 56.2812H56.2812C56.6804 56.2812 57.0039 55.9577 57.0039 55.5586C57.0039 55.1594 56.6804 54.8359 56.2812 54.8359Z" fill="#111348"/>
<defs>
<filter id="filter0_i" x="15.2804" y="11.843" width="70.4393" height="77.3141" filterUnits="userSpaceOnUse" color-interpolation-filters="sRGB">
<feFlood flood-opacity="0" result="BackgroundImageFix"/>
<feBlend mode="normal" in="SourceGraphic" in2="BackgroundImageFix" result="shape"/>
<feColorMatrix in="SourceAlpha" type="matrix" values="0 0 0 0 0 0 0 0 0 0 0 0 0 0 0 0 0 0 127 0" result="hardAlpha"/>
<feOffset/>
<feGaussianBlur stdDeviation="13"/>
<feComposite in2="hardAlpha" operator="arithmetic" k2="-1" k3="1"/>
<feColorMatrix type="matrix" values="0 0 0 0 1 0 0 0 0 1 0 0 0 0 1 0 0 0 0.46 0"/>
<feBlend mode="normal" in2="shape" result="effect1_innerShadow"/>
</filter>
</defs>
</svg>
