<svg width="25" height="25" viewBox="0 0 25 25" fill="none" xmlns="http://www.w3.org/2000/svg">
<path d="M14.3409 12.4998L23.8584 2.98227C24.0723 2.73252 24.1841 2.41125 24.1714 2.08267C24.1587 1.7541 24.0225 1.44241 23.79 1.2099C23.5575 0.977385 23.2458 0.841173 22.9172 0.828481C22.5886 0.81579 22.2674 0.927554 22.0176 1.14144L12.5001 10.6589L2.9826 1.12838C2.73285 0.914498 2.41158 0.802735 2.083 0.815427C1.75443 0.828118 1.44274 0.964329 1.21023 1.19684C0.977715 1.42935 0.841503 1.74104 0.828811 2.06962C0.81612 2.3982 0.927884 2.71946 1.14177 2.96922L10.6593 12.4998L1.12871 22.0173C0.992045 22.1343 0.881046 22.2783 0.802682 22.4403C0.724318 22.6023 0.680281 22.7787 0.673336 22.9585C0.666391 23.1383 0.696688 23.3176 0.762324 23.4851C0.82796 23.6527 0.92752 23.8048 1.05475 23.9321C1.18198 24.0593 1.33414 24.1589 1.50168 24.2245C1.66921 24.2901 1.84851 24.3204 2.02831 24.3135C2.20811 24.3065 2.38453 24.2625 2.54651 24.1841C2.70848 24.1058 2.85251 23.9948 2.96955 23.8581L12.5001 14.3406L22.0176 23.8581C22.2674 24.072 22.5886 24.1838 22.9172 24.1711C23.2458 24.1584 23.5575 24.0222 23.79 23.7896C24.0225 23.5571 24.1587 23.2454 24.1714 22.9169C24.1841 22.5883 24.0723 22.267 23.8584 22.0173L14.3409 12.4998Z" fill="#696CA1"/>
</svg>
