<svg width="40" height="40" viewBox="0 0 40 40" fill="none" xmlns="http://www.w3.org/2000/svg">
<circle cx="20" cy="20" r="20" fill="#6C27FF"/>
<path d="M22.6235 25.1134H17.4386C17.3597 25.1134 17.2841 25.0821 17.2284 25.0263C17.1726 24.9706 17.1413 24.8949 17.1413 24.8161C17.1413 24.7372 17.1726 24.6616 17.2284 24.6059C17.2841 24.5501 17.3597 24.5188 17.4386 24.5188H22.6235C22.7244 24.5245 22.8255 24.5096 22.9205 24.4749C23.0155 24.4402 23.1024 24.3864 23.176 24.317C23.2495 24.2475 23.308 24.1637 23.3481 24.0709C23.3881 23.978 23.4087 23.8779 23.4087 23.7767C23.4087 23.6756 23.3881 23.5755 23.3481 23.4826C23.308 23.3897 23.2495 23.306 23.176 23.2365C23.1024 23.1671 23.0155 23.1133 22.9205 23.0786C22.8255 23.0439 22.7244 23.029 22.6235 23.0347H19.8485C19.7741 23.0348 19.7024 23.007 19.6475 22.9568C18.6791 22.0673 17.4118 21.5743 16.0969 21.5756H12.7951C12.7163 21.5756 12.6406 21.5442 12.5849 21.4885C12.5291 21.4327 12.4978 21.3571 12.4978 21.2783C12.4978 21.1994 12.5291 21.1238 12.5849 21.068C12.6406 21.0123 12.7163 20.981 12.7951 20.981H16.0969C17.52 20.9797 18.8945 21.4987 19.9618 22.4401H22.6229C22.8031 22.4325 22.9831 22.4614 23.1519 22.5252C23.3207 22.5889 23.4748 22.6861 23.6051 22.811C23.7353 22.9359 23.839 23.0858 23.9098 23.2518C23.9806 23.4177 24.0171 23.5963 24.0171 23.7767C24.0171 23.9572 23.9806 24.1357 23.9098 24.3017C23.839 24.4677 23.7353 24.6176 23.6051 24.7425C23.4748 24.8673 23.3207 24.9646 23.1519 25.0283C22.9831 25.0921 22.8031 25.121 22.6229 25.1134H22.6235Z" fill="white"/>
<path d="M25.5537 26.8171C25.4871 26.8171 25.4224 26.7948 25.37 26.7536C25.3176 26.7125 25.2806 26.6549 25.2648 26.5902C25.249 26.5255 25.2555 26.4573 25.283 26.3967C25.3106 26.3361 25.3578 26.2865 25.4169 26.2558L26.1929 25.8545C26.2277 25.8353 26.2659 25.8232 26.3055 25.819C26.345 25.8149 26.3849 25.8186 26.423 25.8302C26.461 25.8417 26.4963 25.8607 26.5269 25.8862C26.5574 25.9116 26.5825 25.9429 26.6008 25.9782C26.619 26.0135 26.63 26.0521 26.6331 26.0917C26.6362 26.1313 26.6313 26.1711 26.6187 26.2088C26.6061 26.2465 26.5861 26.2813 26.5598 26.3111C26.5336 26.341 26.5016 26.3652 26.4658 26.3825L25.6899 26.7838C25.6478 26.8058 25.6011 26.8172 25.5537 26.8171Z" fill="white"/>
<path d="M20.1911 28.8681C19.4936 28.8682 18.8012 28.7475 18.1448 28.5113L12.6924 26.5406C12.6547 26.5281 12.6198 26.5082 12.5899 26.482C12.5599 26.4559 12.5356 26.424 12.5182 26.3882C12.5008 26.3525 12.4908 26.3136 12.4887 26.2739C12.4866 26.2342 12.4925 26.1945 12.506 26.1571C12.5195 26.1197 12.5404 26.0854 12.5674 26.0563C12.5944 26.0271 12.627 26.0036 12.6632 25.9873C12.6994 25.9709 12.7386 25.962 12.7783 25.961C12.8181 25.9601 12.8576 25.9671 12.8946 25.9816L18.3467 27.9527C19.1594 28.2445 20.0298 28.3391 20.8862 28.2286C20.9249 28.2236 20.9643 28.2262 21.002 28.2364C21.0397 28.2466 21.075 28.264 21.106 28.2879C21.1369 28.3117 21.1629 28.3414 21.1824 28.3752C21.2018 28.4091 21.2144 28.4464 21.2195 28.4852C21.2245 28.5239 21.2219 28.5632 21.2117 28.601C21.2015 28.6387 21.184 28.674 21.1602 28.705C21.1364 28.7359 21.1067 28.7618 21.0729 28.7813C21.039 28.8008 21.0016 28.8134 20.9629 28.8184C20.707 28.8515 20.4492 28.8681 20.1911 28.8681Z" fill="white"/>
<path d="M22.9226 28.1729C22.856 28.1729 22.7914 28.1506 22.739 28.1095C22.6867 28.0684 22.6496 28.011 22.6338 27.9463C22.6179 27.8817 22.6243 27.8136 22.6517 27.7529C22.6792 27.6923 22.7262 27.6426 22.7853 27.6119L23.5642 27.2073C23.5988 27.1893 23.6367 27.1783 23.6756 27.1749C23.7146 27.1716 23.7538 27.1759 23.791 27.1877C23.8282 27.1995 23.8628 27.2185 23.8927 27.2436C23.9226 27.2688 23.9472 27.2996 23.9652 27.3342C23.9832 27.3689 23.9942 27.4068 23.9976 27.4457C24.0009 27.4846 23.9966 27.5238 23.9848 27.561C23.973 27.5983 23.954 27.6328 23.9289 27.6627C23.9037 27.6926 23.873 27.7173 23.8383 27.7353L23.0594 28.1396C23.0171 28.1615 22.9702 28.1729 22.9226 28.1729Z" fill="white"/>
<path d="M28.182 25.4614C28.1153 25.4614 28.0505 25.4391 27.9981 25.3979C27.9456 25.3567 27.9085 25.2991 27.8928 25.2343C27.877 25.1695 27.8835 25.1012 27.9113 25.0406C27.939 24.9799 27.9863 24.9303 28.0456 24.8998L29.5847 24.1063L29.4152 23.9576C29.0866 23.6673 28.6871 23.4692 28.2571 23.3833C27.8272 23.2974 27.3821 23.3268 26.9673 23.4686L23.5897 24.6251C23.5526 24.6382 23.5133 24.6438 23.4741 24.6417C23.4348 24.6395 23.3964 24.6296 23.361 24.6125C23.3257 24.5954 23.294 24.5715 23.2679 24.542C23.2419 24.5126 23.2219 24.4783 23.2092 24.4412C23.1964 24.404 23.1912 24.3646 23.1937 24.3254C23.1963 24.2862 23.2066 24.2479 23.2241 24.2127C23.2416 24.1775 23.2658 24.1461 23.2955 24.1203C23.3252 24.0946 23.3597 24.0749 23.397 24.0626L26.7743 22.9061C27.2886 22.7304 27.8402 22.6939 28.3731 22.8003C28.906 22.9067 29.4014 23.1521 29.8088 23.5117L30.3047 23.9481C30.341 23.9801 30.369 24.0204 30.3863 24.0656C30.4035 24.1107 30.4094 24.1595 30.4036 24.2075C30.3977 24.2555 30.3802 24.3013 30.3526 24.341C30.3251 24.3808 30.2882 24.4131 30.2453 24.4354L28.3188 25.4287C28.2765 25.4504 28.2296 25.4616 28.182 25.4614Z" fill="white"/>
<path d="M11.8759 27.8087H9.89178C9.81293 27.8087 9.73731 27.7774 9.68156 27.7217C9.6258 27.6659 9.59448 27.5903 9.59448 27.5114V19.9999C9.59448 19.9211 9.6258 19.8455 9.68156 19.7897C9.73731 19.734 9.81293 19.7026 9.89178 19.7026H11.8759C12.1983 19.7033 12.5072 19.8317 12.7352 20.0596C12.9631 20.2876 13.0915 20.5965 13.0922 20.9189V26.5922C13.0916 26.9146 12.9632 27.2236 12.7353 27.4516C12.5073 27.6796 12.1983 27.808 11.8759 27.8087ZM10.1891 27.2142H11.8759C12.0408 27.2139 12.1988 27.1483 12.3154 27.0317C12.4319 26.9151 12.4974 26.7571 12.4976 26.5922V20.9189C12.4974 20.7541 12.4319 20.596 12.3153 20.4795C12.1988 20.3629 12.0408 20.2974 11.8759 20.2972H10.1891V27.2142Z" fill="white"/>
<path d="M22.973 20.8919C22.0028 20.8919 21.0544 20.6042 20.2477 20.0652C19.441 19.5261 18.8123 18.76 18.441 17.8637C18.0698 16.9673 17.9726 15.981 18.1619 15.0295C18.3512 14.0779 18.8184 13.2038 19.5044 12.5178C20.1904 11.8318 21.0645 11.3646 22.016 11.1753C22.9676 10.986 23.9539 11.0832 24.8502 11.4545C25.7466 11.8257 26.5127 12.4545 27.0517 13.2612C27.5907 14.0679 27.8784 15.0163 27.8784 15.9865C27.8769 17.287 27.3596 18.5338 26.44 19.4535C25.5204 20.3731 24.2736 20.8904 22.973 20.8919ZM22.973 11.6757C22.1204 11.6757 21.287 11.9285 20.5781 12.4022C19.8692 12.8758 19.3166 13.5491 18.9904 14.3368C18.6641 15.1245 18.5787 15.9912 18.7451 16.8275C18.9114 17.6637 19.322 18.4318 19.9248 19.0347C20.5277 19.6375 21.2958 20.0481 22.132 20.2144C22.9683 20.3808 23.835 20.2954 24.6227 19.9691C25.4104 19.6429 26.0837 19.0903 26.5573 18.3814C27.031 17.6725 27.2838 16.8391 27.2838 15.9865C27.2825 14.8436 26.8279 13.7479 26.0198 12.9397C25.2116 12.1316 24.1159 11.677 22.973 11.6757Z" fill="white"/>
<path d="M22.973 16.2838C22.6629 16.2839 22.3597 16.192 22.1018 16.0197C21.844 15.8475 21.6429 15.6026 21.5242 15.3161C21.4055 15.0296 21.3744 14.7144 21.4349 14.4102C21.4953 14.106 21.6447 13.8266 21.8639 13.6073C22.0832 13.388 22.3626 13.2386 22.6667 13.1781C22.9709 13.1176 23.2862 13.1486 23.5727 13.2673C23.8592 13.3859 24.1041 13.5869 24.2764 13.8448C24.4487 14.1026 24.5407 14.4058 24.5407 14.7159C24.5407 14.7947 24.5094 14.8704 24.4536 14.9261C24.3978 14.9819 24.3222 15.0132 24.2434 15.0132C24.1645 15.0132 24.0889 14.9819 24.0332 14.9261C23.9774 14.8704 23.9461 14.7947 23.9461 14.7159C23.946 14.5235 23.8889 14.3354 23.7819 14.1754C23.675 14.0154 23.523 13.8907 23.3452 13.8171C23.1674 13.7435 22.9717 13.7243 22.783 13.7619C22.5943 13.7995 22.4209 13.8921 22.2849 14.0282C22.1488 14.1643 22.0562 14.3377 22.0186 14.5265C21.9811 14.7152 22.0004 14.9108 22.0741 15.0886C22.1477 15.2664 22.2724 15.4184 22.4325 15.5253C22.5925 15.6322 22.7806 15.6892 22.973 15.6892C23.0519 15.6892 23.1275 15.7206 23.1832 15.7763C23.239 15.8321 23.2703 15.9077 23.2703 15.9865C23.2703 16.0654 23.239 16.141 23.1832 16.1968C23.1275 16.2525 23.0519 16.2838 22.973 16.2838Z" fill="white"/>
<path d="M22.9729 18.8249C22.5572 18.8244 22.1587 18.659 21.8648 18.3651C21.5709 18.0711 21.4057 17.6726 21.4053 17.2569C21.4053 17.1781 21.4366 17.1024 21.4923 17.0467C21.5481 16.9909 21.6237 16.9596 21.7026 16.9596C21.7814 16.9596 21.857 16.9909 21.9128 17.0467C21.9685 17.1024 21.9999 17.1781 21.9999 17.2569C21.9999 17.4493 22.057 17.6375 22.164 17.7974C22.271 17.9574 22.4229 18.0821 22.6008 18.1557C22.7786 18.2293 22.9742 18.2485 23.1629 18.2109C23.3517 18.1734 23.525 18.0807 23.6611 17.9446C23.7971 17.8085 23.8898 17.6351 23.9273 17.4463C23.9648 17.2576 23.9455 17.062 23.8719 16.8842C23.7982 16.7064 23.6735 16.5544 23.5135 16.4475C23.3535 16.3406 23.1654 16.2836 22.9729 16.2836C22.8941 16.2836 22.8185 16.2522 22.7627 16.1965C22.7069 16.1407 22.6756 16.0651 22.6756 15.9863C22.6756 15.9074 22.7069 15.8318 22.7627 15.776C22.8185 15.7203 22.8941 15.689 22.9729 15.689C23.3888 15.689 23.7876 15.8542 24.0816 16.1482C24.3757 16.4423 24.5409 16.8411 24.5409 17.2569C24.5409 17.6728 24.3757 18.0716 24.0816 18.3656C23.7876 18.6597 23.3888 18.8249 22.9729 18.8249Z" fill="white"/>
<path d="M22.9728 19.3328C22.894 19.3328 22.8184 19.3015 22.7626 19.2457C22.7069 19.19 22.6755 19.1143 22.6755 19.0355V12.9379C22.6755 12.8591 22.7069 12.7835 22.7626 12.7277C22.8184 12.6719 22.894 12.6406 22.9728 12.6406C23.0517 12.6406 23.1273 12.6719 23.1831 12.7277C23.2388 12.7835 23.2701 12.8591 23.2701 12.9379V19.0355C23.2701 19.1143 23.2388 19.19 23.1831 19.2457C23.1273 19.3015 23.0517 19.3328 22.9728 19.3328Z" fill="white"/>
</svg>
