<svg width="17" height="17" viewBox="0 0 17 17" fill="none" xmlns="http://www.w3.org/2000/svg">
<g clip-path="url(#clip0)">
<path d="M15.2178 11.9968C16.1809 10.7409 16.7042 9.20327 16.7068 7.62069V9.37931C16.7039 10.9482 16.1894 12.4732 15.2412 13.723V12.0172L15.2178 11.9968Z" fill="#CE893D"/>
<path d="M15.2413 12.0172V13.723C14.8224 14.2842 14.3294 14.7861 13.7758 15.215V13.4828L13.7612 13.4652C14.3101 13.0428 14.8 12.5489 15.2179 11.9968L15.2413 12.0172Z" fill="#E6A71E"/>
<path d="M8.49986 0C13.0312 0 16.7068 3.41176 16.7068 7.62069C16.7042 9.20328 16.1809 10.7409 15.2178 11.9968C14.7999 12.5489 14.31 13.0428 13.7611 13.4652C13.3115 13.8185 12.8251 14.1222 12.3102 14.3708C11.7488 14.6446 11.1591 14.856 10.5516 15.0011C9.20257 15.3215 7.79716 15.3215 6.44814 15.0011C5.84061 14.856 5.25097 14.6446 4.68952 14.3708C4.17473 14.1222 3.68827 13.8185 3.2386 13.4652C2.68975 13.0428 2.19986 12.5489 1.78196 11.9968C0.81878 10.7409 0.295545 9.20328 0.292969 7.62069C0.292969 3.41176 3.9685 0 8.49986 0V0Z" fill="#FFCB5A"/>
<path d="M13.7761 13.4828V15.215C13.323 15.571 12.8326 15.8765 12.3134 16.1266L12.3105 16.1207V14.3708C12.8255 14.1222 13.3118 13.8185 13.7615 13.4652L13.7761 13.4828Z" fill="#CE893D"/>
<path d="M12.3104 16.1207L12.3132 16.1266C11.7549 16.4003 11.1682 16.6116 10.5635 16.7567L10.5518 16.7069V15.0011C11.1593 14.856 11.7489 14.6446 12.3104 14.3708V16.1207Z" fill="#E6A71E"/>
<path d="M10.5635 16.7567C9.88766 16.9187 9.19498 17.0003 8.5 17V15.2414C9.19097 15.2427 9.87979 15.1619 10.5517 15.0011V16.7069L10.5635 16.7567Z" fill="#CE893D"/>
<path d="M8.49998 15.2414V17C7.80501 17.0003 7.11246 16.9187 6.43652 16.7567L6.44826 16.7069V15.0011C7.12019 15.1619 7.80902 15.2427 8.49998 15.2414Z" fill="#E6A71E"/>
<path d="M6.448 15.0011V16.7069L6.43627 16.7567C5.8316 16.6116 5.24482 16.4003 4.68652 16.1266L4.68939 16.1207V14.3708C5.25083 14.6446 5.84047 14.856 6.448 15.0011Z" fill="#CE893D"/>
<path d="M3.23872 13.4652C3.68839 13.8185 4.17485 14.1222 4.68964 14.3708V16.1207L4.68678 16.1266C4.16826 15.8755 3.67794 15.57 3.22412 15.215V13.4828L3.23872 13.4652Z" fill="#E6A71E"/>
<path d="M1.78226 11.9968C2.20016 12.5489 2.69005 13.0428 3.2389 13.4652L3.22431 13.4828V15.215C2.67073 14.7861 2.17769 14.2842 1.75879 13.723V12.0172L1.78226 11.9968Z" fill="#CE893D"/>
<path d="M0.292969 7.62069C0.295545 9.20327 0.81878 10.7409 1.78196 11.9968L1.75849 12.0172V13.723C0.810336 12.4732 0.295831 10.9482 0.292969 9.37931V7.62069Z" fill="#E6A71E"/>
<path d="M14.9483 7.62069C14.9483 4.3831 12.0614 1.75862 8.50003 1.75862C4.93871 1.75862 2.05176 4.3831 2.05176 7.62069C2.05176 10.8583 4.93871 13.4828 8.50003 13.4828C12.0614 13.4828 14.9483 10.8583 14.9483 7.62069Z" fill="#E6A71E"/>
<path d="M12.5282 11.0585L12.1274 10.6312C12.4699 10.312 12.7602 9.9409 12.9871 9.53144L13.5006 9.81338C13.2443 10.2772 12.916 10.6976 12.5282 11.0585Z" fill="#FFCB5A"/>
<path d="M8.50012 12.6034C5.42926 12.6034 2.93115 10.3682 2.93115 7.62069C2.93115 4.87313 5.42926 2.63793 8.50012 2.63793C11.571 2.63793 14.0691 4.87313 14.0691 7.62069H13.4829C13.4829 5.19643 11.2477 3.22414 8.50012 3.22414C5.75256 3.22414 3.51736 5.19643 3.51736 7.62069C3.51736 10.0449 5.75256 12.0172 8.50012 12.0172C9.47789 12.022 10.4386 11.7626 11.281 11.2663L11.5813 11.7702C10.648 12.3204 9.58351 12.6083 8.50012 12.6034Z" fill="#FFCB5A"/>
</g>
<defs>
<clipPath id="clip0">
<rect width="17" height="17" fill="white"/>
</clipPath>
</defs>
</svg>
