<svg width="40" height="40" viewBox="0 0 40 40" fill="none" xmlns="http://www.w3.org/2000/svg">
<circle cx="20" cy="20" r="20" fill="#6C27FF"/>
<g clip-path="url(#clip0)">
<path d="M25.3999 23.4961C24.333 23.4961 23.7823 23.8834 23.2966 24.2249C22.8699 24.5248 22.5329 24.7617 21.7997 24.7617C21.0666 24.7617 20.7296 24.5248 20.3031 24.2249C19.8174 23.8832 19.2667 23.4961 18.1998 23.4961C17.133 23.4961 16.5823 23.8834 16.0966 24.2249C15.67 24.5248 15.333 24.7617 14.5999 24.7617C13.8669 24.7617 13.5299 24.5248 13.1033 24.2249C12.6175 23.8834 12.0668 23.4961 11 23.4961V24.5508C11.7332 24.5508 12.0701 24.7877 12.4966 25.0877C12.9825 25.4293 13.533 25.8164 14.5999 25.8164C15.6667 25.8164 16.2174 25.4293 16.7031 25.0877C17.1297 24.7877 17.4667 24.5508 18.1998 24.5508C18.933 24.5508 19.2698 24.7877 19.6965 25.0877C20.1822 25.4293 20.7329 25.8164 21.7997 25.8164C22.8666 25.8164 23.4173 25.4293 23.9032 25.0877C24.3297 24.7878 24.6667 24.5508 25.3999 24.5508C26.1331 24.5508 26.47 24.7877 26.8967 25.0877C27.3824 25.4293 27.9331 25.8164 29 25.8164V24.7617C28.2668 24.7617 27.9298 24.5248 27.5033 24.2249C27.0174 23.8834 26.4667 23.4961 25.3999 23.4961Z" fill="white"/>
<path d="M25.3999 17.2749C24.333 17.2749 23.7823 17.662 23.2966 18.0036C22.8699 18.3035 22.5329 18.5405 21.7997 18.5405C21.0666 18.5405 20.7296 18.3035 20.3031 18.0036C19.8174 17.662 19.2667 17.2749 18.1998 17.2749C17.133 17.2749 16.5823 17.662 16.0966 18.0036C15.67 18.3035 15.333 18.5405 14.5999 18.5405C13.8669 18.5405 13.5299 18.3035 13.1033 18.0036C12.6175 17.662 12.0668 17.2749 11 17.2749V18.3296C11.7332 18.3296 12.0701 18.5665 12.4966 18.8664C12.9825 19.2081 13.533 19.5952 14.5999 19.5952C15.6667 19.5952 16.2174 19.2079 16.7031 18.8664C17.1297 18.5665 17.4667 18.3296 18.1998 18.3296C18.933 18.3296 19.2698 18.5665 19.6965 18.8664C20.1822 19.2081 20.7329 19.5952 21.7997 19.5952C22.8666 19.5952 23.4173 19.2079 23.9032 18.8664C24.3297 18.5665 24.6667 18.3296 25.3999 18.3296C26.1331 18.3296 26.47 18.5665 26.8967 18.8664C27.3824 19.2081 27.9331 19.5952 29 19.5952V18.5405C28.2668 18.5405 27.9298 18.3035 27.5033 18.0036C27.0174 17.662 26.4667 17.2749 25.3999 17.2749Z" fill="white"/>
<path d="M25.3999 20.3857C24.333 20.3857 23.7823 20.7729 23.2966 21.1144C22.8699 21.4143 22.5329 21.6514 21.7997 21.6514C21.0666 21.6514 20.7296 21.4143 20.3031 21.1144C19.8174 20.7729 19.2667 20.3857 18.1998 20.3857C17.133 20.3857 16.5823 20.7729 16.0966 21.1144C15.67 21.4143 15.333 21.6514 14.5999 21.6514C13.8669 21.6514 13.5299 21.4143 13.1033 21.1144C12.6175 20.7729 12.0668 20.3857 11 20.3857V21.4404C11.7332 21.4404 12.0701 21.6773 12.4966 21.9772C12.9825 22.3188 13.533 22.7061 14.5999 22.7061C15.6667 22.7061 16.2174 22.3188 16.7031 21.9772C17.1297 21.6773 17.4667 21.4404 18.1998 21.4404C18.933 21.4404 19.2698 21.6773 19.6965 21.9772C20.1822 22.3188 20.7329 22.7061 21.7997 22.7061C22.8666 22.7061 23.4173 22.3188 23.9032 21.9772C24.3297 21.6773 24.6667 21.4404 25.3999 21.4404C26.1331 21.4404 26.47 21.6773 26.8967 21.9772C27.3824 22.3188 27.9331 22.7061 29 22.7061V21.6514C28.2668 21.6514 27.9298 21.4143 27.5033 21.1144C27.0174 20.7729 26.4667 20.3857 25.3999 20.3857Z" fill="white"/>
<path d="M27.5033 14.8929C27.0174 14.5512 26.4667 14.1641 25.3999 14.1641C24.333 14.1641 23.7823 14.5512 23.2966 14.8929C22.8699 15.1928 22.5329 15.4297 21.7997 15.4297C21.0666 15.4297 20.7296 15.1928 20.3031 14.8929C19.8174 14.5512 19.2667 14.1641 18.1998 14.1641C17.133 14.1641 16.5823 14.5512 16.0966 14.8929C15.67 15.1928 15.333 15.4297 14.5999 15.4297C13.8669 15.4297 13.5299 15.1928 13.1033 14.8929C12.6175 14.5512 12.0668 14.1641 11 14.1641V15.2188C11.7332 15.2188 12.0701 15.4556 12.4966 15.7556C12.9825 16.0972 13.533 16.4844 14.5999 16.4844C15.6667 16.4844 16.2174 16.0972 16.7031 15.7556C17.1297 15.4556 17.4667 15.2188 18.1998 15.2188C18.933 15.2188 19.2698 15.4556 19.6965 15.7556C20.1822 16.0972 20.7329 16.4844 21.7997 16.4844C22.8666 16.4844 23.4173 16.0972 23.9032 15.7556C24.3297 15.4556 24.6667 15.2188 25.3999 15.2188C26.1331 15.2188 26.47 15.4556 26.8967 15.7556C27.3824 16.0972 27.9331 16.4844 29 16.4844V15.4297C28.2668 15.4297 27.9298 15.1928 27.5033 14.8929Z" fill="white"/>
</g>
<defs>
<clipPath id="clip0">
<rect width="18" height="18" fill="white" transform="translate(11 11)"/>
</clipPath>
</defs>
</svg>
