<svg width="101" height="101" viewBox="0 0 101 101" fill="none" xmlns="http://www.w3.org/2000/svg">
<path d="M44 3.75278C48.0222 1.43055 52.9778 1.43055 57 3.75278L87.7343 21.4972C91.7565 23.8194 94.2343 28.1111 94.2343 32.7556V68.2444C94.2343 72.8889 91.7565 77.1805 87.7343 79.5028L57 97.2472C52.9778 99.5695 48.0222 99.5695 44 97.2472L13.2657 79.5028C9.2435 77.1805 6.76572 72.8889 6.76572 68.2444V32.7556C6.76572 28.1111 9.2435 23.8194 13.2657 21.4972L44 3.75278Z" fill="#FFE600" fill-opacity="0.11"/>
<g filter="url(#filter0_i)">
<path d="M43.9999 13.5846C48.0221 11.2624 52.9777 11.2624 56.9999 13.5846L79.2196 26.4131C83.2418 28.7354 85.7196 33.027 85.7196 37.6715V63.3285C85.7196 67.9729 83.2418 72.2646 79.2196 74.5868L56.9999 87.4153C52.9777 89.7376 48.0221 89.7376 43.9999 87.4154L21.7803 74.5868C17.7581 72.2646 15.2803 67.973 15.2803 63.3285V37.6715C15.2803 33.027 17.7581 28.7354 21.7803 26.4131L43.9999 13.5846Z" fill="#FFE600"/>
</g>
<path d="M51 67C46.7262 67 42.7083 65.3357 39.6863 62.3137C36.6643 59.2917 35 55.2738 35 51C35 46.7262 36.6643 42.7083 39.6863 39.6863C42.7082 36.6642 46.7262 35 51 35C55.2738 35 59.2917 36.6643 62.3137 39.6863C65.3357 42.7083 67 46.7262 67 51C67 55.2738 65.3357 59.2917 62.3137 62.3137C59.2918 65.3358 55.2738 67 51 67ZM51 37C43.2804 37 37 43.2804 37 51C37 58.7196 43.2804 65 51 65C58.7196 65 65 58.7196 65 51C65 43.2804 58.7196 37 51 37Z" fill="#000B24"/>
<path d="M51 50C49.6215 50 48.5 48.8785 48.5 47.5C48.5 46.1215 49.6215 45 51 45C52.3785 45 53.5 46.1215 53.5 47.5C53.5 48.0522 53.9477 48.5 54.5 48.5C55.0523 48.5 55.5 48.0522 55.5 47.5C55.5 45.3624 54.0014 43.5695 52 43.1134V42C52 41.4477 51.5523 41 51 41C50.4477 41 50 41.4477 50 42V43.1134C47.9986 43.5695 46.5 45.3624 46.5 47.5C46.5 49.9813 48.5187 52 51 52C52.3785 52 53.5 53.1215 53.5 54.5C53.5 55.8785 52.3785 57 51 57C49.6215 57 48.5 55.8785 48.5 54.5C48.5 53.9478 48.0523 53.5 47.5 53.5C46.9477 53.5 46.5 53.9478 46.5 54.5C46.5 56.6376 47.9986 58.4305 50 58.8866V60C50 60.5522 50.4477 61 51 61C51.5523 61 52 60.5522 52 60V58.8866C54.0014 58.4305 55.5 56.6376 55.5 54.5C55.5 52.0187 53.4813 50 51 50Z" fill="#000B24"/>
<defs>
<filter id="filter0_i" x="15.2803" y="11.843" width="70.4393" height="77.3141" filterUnits="userSpaceOnUse" color-interpolation-filters="sRGB">
<feFlood flood-opacity="0" result="BackgroundImageFix"/>
<feBlend mode="normal" in="SourceGraphic" in2="BackgroundImageFix" result="shape"/>
<feColorMatrix in="SourceAlpha" type="matrix" values="0 0 0 0 0 0 0 0 0 0 0 0 0 0 0 0 0 0 127 0" result="hardAlpha"/>
<feOffset/>
<feGaussianBlur stdDeviation="13"/>
<feComposite in2="hardAlpha" operator="arithmetic" k2="-1" k3="1"/>
<feColorMatrix type="matrix" values="0 0 0 0 1 0 0 0 0 1 0 0 0 0 1 0 0 0 0.46 0"/>
<feBlend mode="normal" in2="shape" result="effect1_innerShadow"/>
</filter>
</defs>
</svg>
