<svg width="15" height="23" viewBox="0 0 15 23" fill="none" xmlns="http://www.w3.org/2000/svg">
<path d="M6.7 22.5V20.25C4.21667 20.0667 2.275 19.2 0.875 17.65L2.5 15.4C3.65 16.6333 5.05 17.375 6.7 17.625V12.8C5.91667 12.6 5.26667 12.4083 4.75 12.225C4.23333 12.025 3.69167 11.75 3.125 11.4C2.55833 11.0333 2.125 10.5667 1.825 10C1.54167 9.41667 1.4 8.73333 1.4 7.95C1.4 6.66667 1.88333 5.575 2.85 4.675C3.81667 3.775 5.1 3.25833 6.7 3.125V0.8H8.7V3.15C10.7167 3.36667 12.3917 4.11667 13.725 5.4L12.05 7.575C11.1333 6.675 10.0167 6.09167 8.7 5.825V10.125C9.31667 10.2917 9.84167 10.45 10.275 10.6C10.7083 10.75 11.1833 10.9667 11.7 11.25C12.2333 11.5167 12.6583 11.8167 12.975 12.15C13.2917 12.4667 13.5583 12.8833 13.775 13.4C13.9917 13.9167 14.1 14.5 14.1 15.15C14.1 16.5167 13.6417 17.675 12.725 18.625C11.825 19.5583 10.4833 20.1 8.7 20.25V22.5H6.7ZM10.525 16.825C10.925 16.4083 11.125 15.9417 11.125 15.425C11.125 14.9083 10.9167 14.4917 10.5 14.175C10.0833 13.8417 9.48333 13.5583 8.7 13.325V17.65C9.51667 17.5167 10.125 17.2417 10.525 16.825ZM4.4 7.75C4.4 8.55 5.16667 9.16667 6.7 9.6V5.7C5.98333 5.76667 5.41667 5.99167 5 6.375C4.6 6.74167 4.4 7.2 4.4 7.75Z" fill="#696CA2"/>
</svg>
