<svg width="39" height="39" viewBox="0 0 39 39" fill="none" xmlns="http://www.w3.org/2000/svg">
<path d="M19.5 0.361053C8.74758 0.361053 0 9.10863 0 19.8611C0 22.2545 0.429 24.5925 1.27481 26.8101C1.38465 27.0981 1.65887 27.2751 1.94977 27.2751C2.03531 27.2751 2.12238 27.2598 2.207 27.2275C2.57956 27.0854 2.76649 26.668 2.62435 26.2953C1.84145 24.2427 1.44437 22.078 1.44437 19.8611C1.44445 9.90508 9.54403 1.8055 19.5 1.8055C29.456 1.8055 37.5556 9.90508 37.5556 19.8611C37.5556 20.2599 37.8789 20.5832 38.2777 20.5832C38.6766 20.5832 39 20.2599 39 19.8611C39 9.10863 30.2524 0.361053 19.5 0.361053Z" fill="url(#paint0_linear)" fill-opacity="0.75"/>
<path d="M19.5101 3.97213C15.1753 3.97213 10.6846 6.06952 7.50528 9.58257C4.68936 12.694 3.27051 16.4666 3.61717 19.933L3.69738 20.744C4.26158 26.3626 4.2609 26.3625 3.20157 28.4586C3.12784 28.6046 3.04908 28.7601 2.96552 28.9269C2.78727 29.2837 2.9317 29.7175 3.28833 29.8959C3.392 29.9478 3.50207 29.9723 3.61069 29.9723C3.87554 29.9723 4.13064 29.8259 4.25724 29.5729C4.33958 29.4081 4.4172 29.2544 4.49017 29.1101C5.73977 26.6378 5.7285 26.5246 5.13337 20.5998L5.05209 19.7891C4.74603 16.7281 6.02854 13.3612 8.57116 10.5518C11.481 7.33618 15.5767 5.4165 19.5101 5.4165C27.475 5.4165 33.9648 11.8962 33.9648 19.861V23.4721C33.9648 23.8709 34.2882 24.1942 34.6871 24.1942C35.086 24.1942 35.4093 23.8709 35.4093 23.4721V19.8611C35.4092 11.0998 28.2713 3.97213 19.5101 3.97213Z" fill="url(#paint1_linear)" fill-opacity="0.75"/>
<path d="M24.0201 8.44228C22.5816 7.87221 21.0606 7.58321 19.4997 7.58321C16.208 7.58321 13.1254 8.84393 10.8199 11.1331C8.49974 13.4369 7.22196 16.5365 7.22196 19.861C7.22196 21.7053 7.3919 23.3138 7.54195 24.7328C7.92914 28.3975 8.14249 30.4163 5.37685 32.2601C5.04504 32.4814 4.95523 32.9298 5.17659 33.2616C5.31568 33.4704 5.54473 33.5832 5.7782 33.5832C5.91576 33.5832 6.055 33.544 6.1781 33.4619C9.67073 31.1336 9.36513 28.2419 8.97833 24.5812C8.83215 23.1974 8.6664 21.6292 8.6664 19.861C8.6664 13.7863 13.425 9.02766 19.4997 9.02766C20.8777 9.02766 22.2195 9.28246 23.488 9.78511C23.8584 9.93182 24.2784 9.75053 24.4255 9.37973C24.5724 9.009 24.3909 8.58914 24.0201 8.44228Z" fill="url(#paint2_linear)" fill-opacity="0.75"/>
<path d="M31.7777 19.8332C31.7687 15.8914 29.8494 12.1693 26.6394 9.87126C26.3152 9.63924 25.864 9.71366 25.6318 10.0382C25.3997 10.3625 25.4743 10.8137 25.7987 11.0459C28.638 13.0786 30.3332 16.3739 30.3332 19.8611C30.3332 19.8796 30.3339 19.8981 30.3354 19.9164C30.3425 20.0091 31.0315 29.2569 29.6325 34.8527C29.536 35.2395 29.7711 35.6317 30.1582 35.7285C30.2169 35.7431 30.2758 35.7502 30.3338 35.7502C30.6574 35.7502 30.9518 35.5312 31.034 35.2029C32.4652 29.4779 31.8281 20.5067 31.7777 19.8332Z" fill="url(#paint3_linear)" fill-opacity="0.75"/>
<path d="M27.6436 16.8885C26.4002 13.4826 23.1274 11.1943 19.5001 11.1943C14.7213 11.1943 10.8334 15.082 10.8334 19.861C10.8334 19.8909 10.8353 19.9209 10.839 19.9506C10.8461 20.0073 11.5412 25.689 10.8406 30.5922C10.7842 30.987 11.0585 31.3529 11.4536 31.4093C11.4881 31.4143 11.5225 31.4167 11.5566 31.4167C11.9101 31.4167 12.2192 31.1567 12.2707 30.7964C12.9721 25.8865 12.3503 20.4191 12.2781 19.8179C12.3011 15.8554 15.5321 12.6387 19.5001 12.6387C22.5232 12.6387 25.2505 14.5457 26.2866 17.3839C26.4234 17.7586 26.8385 17.951 27.2128 17.8147C27.5875 17.678 27.7802 17.2632 27.6436 16.8885Z" fill="url(#paint4_linear)" fill-opacity="0.75"/>
<path d="M19.5098 14.8055C16.7222 14.8055 14.4494 17.0733 14.4494 19.861C14.4494 19.8892 14.4483 19.9174 14.4517 19.9452C14.4657 20.0653 15.8199 32.0053 12.4134 36.7745C12.1815 37.0991 12.2561 37.5501 12.5807 37.782C12.708 37.8729 12.8543 37.9165 12.9997 37.9165C13.2248 37.9165 13.4468 37.8114 13.5877 37.6141C17.2433 32.4964 15.9972 20.7724 15.8889 19.8213C15.9103 17.8482 17.5321 16.2498 19.5101 16.2498C21.5013 16.2498 23.1312 17.8697 23.1312 19.8609V24.9164C23.1312 25.3153 23.4546 25.6387 23.8535 25.6387C24.2524 25.6387 24.5757 25.3153 24.5757 24.9164V19.8609C24.5757 17.0733 22.2975 14.8055 19.5098 14.8055Z" fill="url(#paint5_linear)" fill-opacity="0.75"/>
<path d="M34.7339 25.2234C34.3408 25.1887 33.9861 25.4825 33.9515 25.8798L33.5109 30.9162C33.476 31.3136 33.7699 31.6638 34.1673 31.6985C34.1886 31.7004 34.21 31.7014 34.2311 31.7014C34.6014 31.7014 34.9169 31.418 34.9497 31.0421L35.3903 26.0058C35.4253 25.6083 35.1314 25.2581 34.7339 25.2234Z" fill="url(#paint6_linear)" fill-opacity="0.75"/>
<path d="M11.2341 32.9823C10.9024 32.7611 10.4539 32.8508 10.2326 33.1827L8.78813 35.3493C8.56685 35.6812 8.65658 36.1295 8.98838 36.3508C9.11148 36.4329 9.25057 36.4721 9.38829 36.4721C9.62175 36.4721 9.8508 36.3592 9.98989 36.1505L11.4343 33.9838C11.6557 33.652 11.566 33.2036 11.2341 32.9823Z" fill="url(#paint7_linear)" fill-opacity="0.75"/>
<path d="M28.1506 19.7097C28.0672 19.3197 27.683 19.0712 27.2932 19.1548C26.9032 19.2384 26.6547 19.6223 26.7383 20.0123C26.7594 20.111 28.8118 29.9557 25.3539 36.8713C25.1757 37.2282 25.3202 37.662 25.677 37.8404C25.7806 37.8922 25.8908 37.9167 25.9995 37.9167C26.2643 37.9167 26.5194 37.7704 26.646 37.5173C30.3281 30.1533 28.2413 20.1328 28.1506 19.7097Z" fill="url(#paint8_linear)" fill-opacity="0.75"/>
<path d="M20.2006 18.9638C20.1036 18.5766 19.7107 18.3419 19.3248 18.4382C18.9378 18.535 18.7025 18.9271 18.7991 19.314C18.8131 19.3699 20.1686 24.9598 18.0924 31.1883C17.9663 31.5668 18.1709 31.9757 18.5492 32.1019C18.6248 32.1271 18.7019 32.1391 18.7777 32.1391C19.08 32.1391 19.3619 31.9478 19.4627 31.6451C21.6706 25.0217 20.2616 19.2079 20.2006 18.9638Z" fill="url(#paint9_linear)" fill-opacity="0.75"/>
<path d="M18.3237 33.6349C17.9538 33.4868 17.5333 33.6666 17.385 34.0373L15.9405 37.6483C15.7924 38.0186 15.9724 38.439 16.3428 38.5871C16.4308 38.6224 16.5215 38.639 16.6109 38.639C16.8975 38.639 17.1686 38.4672 17.2817 38.1847L18.7261 34.5737C18.8742 34.2034 18.6941 33.7831 18.3237 33.6349Z" fill="url(#paint10_linear)" fill-opacity="0.75"/>
<path d="M23.8339 27.7771C23.8335 27.7771 23.8333 27.7771 23.8332 27.7771C23.4349 27.7771 23.1117 28.1142 23.1109 28.5125C23.1109 28.5546 23.0795 32.7788 21.0026 37.6249C20.8456 37.9916 21.0154 38.4198 21.3821 38.5769C21.4749 38.6166 21.5713 38.6372 21.6662 38.6372C21.9463 38.6372 22.2129 38.4741 22.3304 38.2001C24.5302 33.0674 24.5555 28.6959 24.5555 28.5129C24.5554 28.1142 24.2324 27.7771 23.8339 27.7771Z" fill="url(#paint11_linear)" fill-opacity="0.75"/>
<defs>
<linearGradient id="paint0_linear" x1="19.5" y1="0.361053" x2="19.5" y2="27.2751" gradientUnits="userSpaceOnUse">
<stop stop-color="#000C25"/>
<stop offset="0.484375" stop-color="#3E3E3E" stop-opacity="0.76"/>
<stop offset="1" stop-color="#000C25"/>
</linearGradient>
<linearGradient id="paint1_linear" x1="19.1492" y1="3.97213" x2="19.1492" y2="29.9723" gradientUnits="userSpaceOnUse">
<stop stop-color="#000C25"/>
<stop offset="0.484375" stop-color="#3E3E3E" stop-opacity="0.76"/>
<stop offset="1" stop-color="#000C25"/>
</linearGradient>
<linearGradient id="paint2_linear" x1="14.7658" y1="7.58321" x2="14.7658" y2="33.5832" gradientUnits="userSpaceOnUse">
<stop stop-color="#000C25"/>
<stop offset="0.484375" stop-color="#3E3E3E" stop-opacity="0.76"/>
<stop offset="1" stop-color="#000C25"/>
</linearGradient>
<linearGradient id="paint3_linear" x1="28.7295" y1="9.73628" x2="28.7295" y2="35.7502" gradientUnits="userSpaceOnUse">
<stop stop-color="#000C25"/>
<stop offset="0.484375" stop-color="#3E3E3E" stop-opacity="0.76"/>
<stop offset="1" stop-color="#000C25"/>
</linearGradient>
<linearGradient id="paint4_linear" x1="19.2604" y1="11.1943" x2="19.2604" y2="31.4167" gradientUnits="userSpaceOnUse">
<stop stop-color="#000C25"/>
<stop offset="0.484375" stop-color="#3E3E3E" stop-opacity="0.76"/>
<stop offset="1" stop-color="#000C25"/>
</linearGradient>
<linearGradient id="paint5_linear" x1="18.4271" y1="14.8055" x2="18.4271" y2="37.9165" gradientUnits="userSpaceOnUse">
<stop stop-color="#000C25"/>
<stop offset="0.484375" stop-color="#3E3E3E" stop-opacity="0.76"/>
<stop offset="1" stop-color="#000C25"/>
</linearGradient>
<linearGradient id="paint6_linear" x1="34.4506" y1="25.2206" x2="34.4506" y2="31.7014" gradientUnits="userSpaceOnUse">
<stop stop-color="#000C25"/>
<stop offset="0.484375" stop-color="#3E3E3E" stop-opacity="0.76"/>
<stop offset="1" stop-color="#000C25"/>
</linearGradient>
<linearGradient id="paint7_linear" x1="10.1113" y1="32.861" x2="10.1113" y2="36.4721" gradientUnits="userSpaceOnUse">
<stop stop-color="#000C25"/>
<stop offset="0.484375" stop-color="#3E3E3E" stop-opacity="0.76"/>
<stop offset="1" stop-color="#000C25"/>
</linearGradient>
<linearGradient id="paint8_linear" x1="27.0494" y1="19.1386" x2="27.0494" y2="37.9167" gradientUnits="userSpaceOnUse">
<stop stop-color="#000C25"/>
<stop offset="0.484375" stop-color="#3E3E3E" stop-opacity="0.76"/>
<stop offset="1" stop-color="#000C25"/>
</linearGradient>
<linearGradient id="paint9_linear" x1="19.3773" y1="18.4166" x2="19.3773" y2="32.1391" gradientUnits="userSpaceOnUse">
<stop stop-color="#000C25"/>
<stop offset="0.484375" stop-color="#3E3E3E" stop-opacity="0.76"/>
<stop offset="1" stop-color="#000C25"/>
</linearGradient>
<linearGradient id="paint10_linear" x1="17.3333" y1="33.583" x2="17.3333" y2="38.639" gradientUnits="userSpaceOnUse">
<stop stop-color="#000C25"/>
<stop offset="0.484375" stop-color="#3E3E3E" stop-opacity="0.76"/>
<stop offset="1" stop-color="#000C25"/>
</linearGradient>
<linearGradient id="paint11_linear" x1="22.7498" y1="27.7771" x2="22.7498" y2="38.6372" gradientUnits="userSpaceOnUse">
<stop stop-color="#000C25"/>
<stop offset="0.484375" stop-color="#3E3E3E" stop-opacity="0.76"/>
<stop offset="1" stop-color="#000C25"/>
</linearGradient>
</defs>
</svg>
