<svg width="20" height="18" viewBox="0 0 20 18" fill="none" xmlns="http://www.w3.org/2000/svg">
<path fill-rule="evenodd" clip-rule="evenodd" d="M0.499954 9.00004C0.499954 9.31498 0.625065 9.61703 0.847765 9.83972C1.07046 10.0624 1.37251 10.1875 1.68745 10.1875H15.4458L10.3467 15.2843C10.2363 15.3947 10.1487 15.5258 10.089 15.67C10.0292 15.8143 9.99845 15.9689 9.99845 16.125C9.99845 16.2812 10.0292 16.4358 10.089 16.58C10.1487 16.7243 10.2363 16.8554 10.3467 16.9658C10.4571 17.0762 10.5882 17.1638 10.7324 17.2235C10.8767 17.2833 11.0313 17.314 11.1875 17.314C11.3436 17.314 11.4982 17.2833 11.6425 17.2235C11.7867 17.1638 11.9178 17.0762 12.0282 16.9658L19.1532 9.84079C19.2638 9.73048 19.3515 9.59943 19.4114 9.45516C19.4713 9.31089 19.5021 9.15623 19.5021 9.00004C19.5021 8.84384 19.4713 8.68917 19.4114 8.5449C19.3515 8.40064 19.2638 8.26959 19.1532 8.15928L12.0282 1.03429C11.8052 0.811305 11.5028 0.686035 11.1875 0.686035C10.8721 0.686035 10.5697 0.811305 10.3467 1.03429C10.1237 1.25727 9.99845 1.55969 9.99845 1.87504C9.99845 2.19038 10.1237 2.49281 10.3467 2.71579L15.4458 7.81253H1.68745C1.37251 7.81253 1.07046 7.93765 0.847765 8.16035C0.625065 8.38305 0.499954 8.68509 0.499954 9.00004Z" fill="white"/>
</svg>
