<svg width="1920" height="1133" viewBox="0 0 1920 1133" fill="none" xmlns="http://www.w3.org/2000/svg">
<path d="M998.08 -77L-61 981.33V998.976L1016.16 -77H998.08ZM1052.74 -77L-61 1035.95V1053.59L1070.39 -77H1052.74ZM943.843 -77L-61 927.132V944.778L961.502 -77H943.843ZM834.53 -77L-61 817.896V835.542L852.609 -77H834.53ZM889.187 -77L-61 872.514V890.16L906.845 -77H889.187ZM725.637 -77L-61 709.08V726.726L743.295 -77H725.637ZM1107.39 -77L-61 1090.57V1108.21L1125.05 -77H1107.39ZM780.294 -77L-61 763.698V781.344L797.952 -77H780.294ZM1434.07 -77L223.215 1133H240.873L1451.73 -77H1434.07ZM1379.84 -77L168.979 1133H186.637L1397.49 -77H1379.84ZM1488.73 -77L277.872 1133H295.53L1506.39 -77H1488.73ZM1216.29 -77L5.42897 1133H23.0873L1233.94 -77H1216.29ZM1325.18 -77L114.322 1133H132.401L1343.26 -77H1325.18ZM1161.63 -77L-49.2278 1133H-31.5694L1179.29 -77H1161.63ZM1270.52 -77L59.6653 1133H77.744L1288.6 -77H1270.52ZM507.43 -77L-61 491.028V508.674L525.509 -77H507.43ZM670.98 -77L-61 654.462V672.108L689.059 -77H670.98ZM180.751 -77L-61 164.58V182.226L198.409 -77H180.751ZM234.987 -77L-61 218.778V236.424L253.066 -77H234.987ZM-37.4556 -77L-61 -53.4722V-35.8264L-19.7972 -77H-37.4556ZM289.644 -77L-61 273.396V291.042L307.302 -77H289.644ZM71.4375 -77L-61 55.3438V72.9896L89.5163 -77H71.4375ZM17.2012 -77L-61 1.14584V18.7917L34.8595 -77H17.2012ZM126.094 -77L-61 109.962V127.608L143.753 -77H126.094ZM562.087 -77L-61 545.646V563.292L580.166 -77H562.087ZM616.744 -77L-61 600.264V617.91L634.402 -77H616.744ZM1543.39 -77L332.529 1133H350.187L1561.04 -77H1543.39ZM453.194 -77L-61 436.83V454.476L470.852 -77H453.194ZM343.88 -77L-61 327.594V345.24L361.959 -77H343.88ZM398.537 -77L-61 382.212V399.858L416.616 -77H398.537ZM1385.72 1133L2058 461.198V443.552L1368.06 1133H1385.72ZM1549.27 1133L2058 624.632V606.986L1531.61 1133H1549.27ZM1495.04 1133L2058 570.434V552.788L1476.96 1133H1495.04ZM1603.93 1133L2058 679.25V661.604L1586.27 1133H1603.93ZM1597.62 -77L386.765 1133H404.423L1615.28 -77H1597.62ZM1276.83 1133L2058 352.382V334.736L1259.17 1133H1276.83ZM1331.49 1133L2058 407V389.354L1313.41 1133H1331.49ZM1440.38 1133L2058 515.816V498.17L1422.72 1133H1440.38ZM1658.59 1133L2058 733.868V716.222L1640.51 1133H1658.59ZM1931.03 1133L2058 1006.12V988.472L1912.95 1133H1931.03ZM1985.68 1133L2058 1060.74V1043.09L1967.61 1133H1985.68ZM2039.92 1133L2058 1114.93V1097.29L2022.26 1133H2039.92ZM1822.14 1133L2058 897.302V879.656L1804.06 1133H1822.14ZM1876.37 1133L2058 951.5V933.854L1858.71 1133H1876.37ZM1767.48 1133L2058 842.684V825.038L1749.82 1133H1767.48ZM1712.82 1133L2058 788.066V770.42L1695.16 1133H1712.82ZM1222.17 1133L2058 297.764V280.118L1204.51 1133H1222.17ZM1815.83 -77L604.971 1133H622.63L1833.49 -77H1815.83ZM1870.49 -77L659.628 1133H677.287L1888.14 -77H1870.49ZM1924.72 -77L713.865 1133H731.523L1942.38 -77H1924.72ZM1652.28 -77L441.422 1133H459.08L1669.94 -77H1652.28ZM1979.38 -77L768.521 1133H786.18L1997.04 -77H1979.38ZM1761.17 -77L550.315 1133H567.973L1778.83 -77H1761.17ZM1706.94 -77L496.078 1133H513.737L1724.59 -77H1706.94ZM1113.28 1133L2058 188.948V171.302L1095.62 1133H1113.28ZM1059.04 1133L2058 134.75V117.104L1040.96 1133H1059.04ZM2034.04 -77L823.178 1133H840.836L2051.69 -77H2034.04ZM1004.39 1133L2058 80.1319V62.4861L986.307 1133H1004.39ZM1167.94 1133L2058 243.566V225.5L1149.86 1133H1167.94ZM877.414 1133H895.073L2058 -28.684V-46.75L877.414 1133ZM949.729 1133L2058 25.5139V7.86806L932.071 1133H949.729Z" fill="url(#paint0_radial)"/>
<defs>
<radialGradient id="paint0_radial" cx="0" cy="0" r="1" gradientUnits="userSpaceOnUse" gradientTransform="translate(987.773 75.4406) scale(1797.37 1796.1)">
<stop stop-color="white"/>
<stop offset="0.1916" stop-color="#F9F9FA"/>
<stop offset="0.4554" stop-color="#E7E9EB"/>
<stop offset="0.7597" stop-color="#CACFD4"/>
<stop offset="1" stop-color="#AEB6BD"/>
</radialGradient>
</defs>
</svg>
