<svg width="313" height="100" viewBox="0 0 313 100" fill="none" xmlns="http://www.w3.org/2000/svg">
<path d="M55.3974 0.0128376C49.3282 0.340381 44.7999 1.08237 40.1505 2.50618C33.9535 4.41128 29.304 6.6105 24.0961 10.1065C21.5056 11.8445 19.6553 13.3285 17.0782 15.7283C13.5861 18.9836 10.4842 22.6936 7.96102 26.6441C6.59512 28.7765 6.31925 29.2645 5.07447 31.7244C3.95752 33.917 2.51761 37.3862 1.93896 39.2446C1.75056 39.8662 1.47469 40.7553 1.32666 41.2165C1.17863 41.6777 0.983501 42.3395 0.89603 42.6938C0.694173 43.4826 -0.032512 46.9719 0.00113079 46.9986C0.0145879 47.012 0.18953 46.3837 0.384659 45.6083C0.922944 43.516 1.219 42.5066 1.66981 41.2432C1.89186 40.6216 2.22828 39.679 2.42341 39.1443C2.81367 38.048 4.36797 34.552 4.98027 33.4022C6.04338 31.3902 7.25452 29.3648 8.55986 27.4129C11.6886 22.727 15.3894 18.6561 19.8369 14.9729C22.4476 12.8205 25.9936 10.4541 29.5597 8.49555C32.7625 6.73083 36.8198 5.11316 41.2338 3.82304C45.3584 2.6265 50.1693 1.91125 55.4983 1.7174C59.1519 1.58371 64.2253 1.99147 68.2826 2.75351C73.5981 3.74951 80.1047 6.06237 84.5993 8.55571C87.9636 10.4274 91.523 12.787 93.9049 14.7323C95.7015 16.1962 98.0094 18.3219 99.3214 19.7256C102.84 23.4757 105.552 27.1455 107.961 31.4236C109.159 33.5493 109.347 33.917 110.323 36.0694C111.238 38.1015 111.379 38.4558 112.247 40.9224C112.866 42.6871 113.176 43.7165 113.673 45.7152C113.808 46.2567 113.936 46.6912 113.949 46.6711C113.983 46.6377 113.424 43.7967 113.223 42.9879C113.095 42.4799 112.308 39.8796 111.87 38.5427C111.756 38.1951 111.278 36.9584 110.8 35.7953C109.905 33.5961 108.304 30.2872 107.396 28.7698C104.388 23.7297 100.963 19.4582 96.8924 15.6748C93.4339 12.4528 90.5878 10.3405 86.4161 7.89394C82.6481 5.68135 78.7253 3.99684 73.8269 2.48613C69.6754 1.20937 65.4499 0.474073 60.141 0.106421C59.0577 0.0328912 56.1308 -0.0272698 55.3974 0.0128376Z" fill="white"/>
<path d="M65.5912 17.2924C64.8779 17.4729 64.01 17.767 62.496 18.3218C59.2596 19.5184 58.2301 19.7724 55.7406 19.993C54.4285 20.1133 51.7438 20.5411 50.351 20.8553C46.5022 21.731 42.6333 23.2751 38.7846 25.4676C31.6792 29.5185 25.7244 35.9624 22.3198 43.3021C19.9244 48.4425 18.7267 53.5161 18.5518 59.1913C18.4912 61.2635 18.4912 61.4573 18.6595 63.3959C18.9353 66.6579 19.5409 69.7328 20.4358 72.4133C22.1045 77.4134 24.5335 81.7651 27.8574 85.6822C28.8465 86.8453 31.3495 89.332 32.453 90.2411C34.2495 91.7251 36.2277 93.1288 37.7013 93.9711C39.8813 95.2144 41.7115 96.1168 43.3533 96.7585C46.2196 97.8815 49.6445 98.7773 52.4705 99.1316C54.3276 99.3655 55.0341 99.4056 57.5842 99.3989C60.5111 99.3989 61.8097 99.292 64.4137 98.8642C70.9673 97.7746 77.4604 94.7197 82.6615 90.2946C83.5766 89.5191 85.4943 87.614 86.3555 86.6381C90.4936 81.9121 93.3196 76.4441 94.6249 70.6219C95.5265 66.6312 95.7284 63.0215 95.3045 58.73C95.1632 57.2995 95.0623 56.6979 94.6989 54.9867C94.3154 53.1952 94.1876 52.7206 93.6156 51.0495C92.5862 48.028 91.301 45.4344 89.3901 42.52C88.9393 41.8315 87.9636 40.5748 86.9342 39.3515C85.9316 38.1549 83.6977 35.9758 82.4462 34.9731L81.3024 34.0573L82.1771 34.8728C84.4177 36.9718 85.9316 38.7432 87.7349 41.417C89.2892 43.7098 90.5878 46.3369 91.6711 49.3716C91.7922 49.7192 92.1084 50.8155 92.3641 51.8115C92.7611 53.349 92.8755 53.9038 93.111 55.5816L93.3869 57.5469L93.4003 59.9934C93.407 61.6044 93.3801 62.7274 93.3263 63.2755C92.9562 66.8317 92.243 69.813 91.0453 72.8345C89.1613 77.5872 85.8643 82.1728 81.807 85.7089C77.965 89.0579 72.9388 91.6448 67.8654 92.8882C62.496 94.1983 56.225 94.0914 50.9902 92.594C48.4603 91.8721 45.715 90.7023 43.6561 89.479C42.169 88.5967 40.4196 87.3868 39.3834 86.5311C33.7382 81.8653 30.1653 76.0765 28.5168 68.924C28.1938 67.5136 27.9852 65.6619 27.8978 63.5028C27.8305 61.7648 27.8372 61.4974 27.9718 60.0068C28.1198 58.4159 28.1467 58.2086 28.4764 56.4573C29.1627 52.8008 31.0535 48.4091 33.3075 45.2272C36.1201 41.2633 39.9217 37.9678 44.0598 35.9022C46.7983 34.5386 49.1533 33.6963 51.6361 33.2017C53.0222 32.9276 55.6598 32.5934 56.4672 32.5934C57.5304 32.5934 58.8357 32.8741 61.4195 33.6629C63.6062 34.3247 64.5146 34.5787 65.3893 34.7592L66.1631 34.9196L66.2371 34.6389C66.4928 33.6629 67.1724 33.1348 68.1548 33.1282C69.1371 33.1282 69.7629 33.6429 70.0724 34.7124C70.106 34.8461 70.6511 34.6255 72.5283 33.7298C76.4847 31.838 77.9583 31.2498 79.5193 30.9557C80.7708 30.715 81.013 30.6482 81.3898 30.4811C81.9752 30.2003 82.6212 29.5319 82.9509 28.8433C83.0989 28.5359 83.2604 28.1014 83.3209 27.8808C83.7246 26.3233 83.5497 24.3781 82.9038 23.1548C82.3116 22.0251 81.4773 21.4703 80.0239 21.2296C78.1332 20.9221 76.9019 20.4475 72.7907 18.489C71.7747 18.001 70.752 17.5331 70.5299 17.4462L70.1128 17.2924L70.0388 17.5732C69.8907 18.1614 69.4332 18.6895 68.8478 18.9301C68.4643 19.0906 67.7847 19.0772 67.3742 18.8967C66.7687 18.6293 66.3044 18.0478 66.2237 17.4662C66.1967 17.2924 66.1631 17.152 66.1362 17.1587C66.116 17.1587 65.867 17.2189 65.5912 17.2924Z" fill="white"/>
<path d="M58.9299 49.5321C57.0257 49.8062 55.2763 50.4947 53.7489 51.5642C52.9347 52.1391 51.6226 53.4359 51.044 54.2514C50.1962 55.4346 49.5099 57.0122 49.16 58.563C49.0254 59.1512 49.012 59.4253 49.012 60.8023C49.012 62.1793 49.0254 62.4534 49.16 63.0416C49.5099 64.5925 50.1962 66.17 51.044 67.3532C51.6226 68.1687 52.9347 69.4655 53.7489 70.0404C56.6421 72.0725 60.2958 72.6808 63.687 71.6982C67.2665 70.6621 70.1666 67.8946 71.3373 64.412C71.7949 63.0483 71.8756 62.4868 71.8756 60.8023C71.8756 59.1178 71.7949 58.5563 71.3373 57.1926C70.0253 53.2688 66.5601 50.3343 62.3951 49.599C61.554 49.4519 59.7306 49.4185 58.9299 49.5321Z" fill="white"/>
<path d="M154.724 58.312C152.193 58.312 150.096 57.584 148.432 56.128C146.768 54.672 145.936 52.774 145.936 50.434C145.936 47.626 146.915 45.2513 148.874 43.31C150.833 41.3513 153.268 40.372 156.18 40.372C158.693 40.372 160.782 41.1 162.446 42.556C164.127 43.9947 164.968 45.8753 164.968 48.198C164.968 51.0233 163.989 53.4153 162.03 55.374C160.071 57.3327 157.636 58.312 154.724 58.312ZM154.984 54.36C156.492 54.36 157.757 53.7967 158.78 52.67C159.803 51.526 160.314 50.148 160.314 48.536C160.314 47.288 159.907 46.274 159.092 45.494C158.277 44.714 157.22 44.324 155.92 44.324C154.412 44.324 153.147 44.896 152.124 46.04C151.101 47.1667 150.59 48.536 150.59 50.148C150.59 51.396 150.997 52.41 151.812 53.19C152.627 53.97 153.684 54.36 154.984 54.36ZM174.422 58.312C171.84 58.312 169.864 57.7573 168.494 56.648C167.142 55.5213 166.466 54.0133 166.466 52.124C166.466 51.7947 166.51 51.4133 166.596 50.98L168.884 40.658H173.434L171.172 50.876C171.12 50.9973 171.094 51.24 171.094 51.604C171.112 52.384 171.406 53.0513 171.978 53.606C172.568 54.1433 173.382 54.412 174.422 54.412C176.606 54.412 177.958 53.2333 178.478 50.876L180.74 40.658H185.264L183.002 50.954C182.482 53.2593 181.546 55.062 180.194 56.362C178.86 57.662 176.936 58.312 174.422 58.312ZM199.356 58H194.416L192.804 52.176H190.308L189.034 58H184.562L188.384 40.658H196.288C197.831 40.658 199.148 41.126 200.24 42.062C201.35 42.998 201.904 44.22 201.904 45.728C201.904 47.236 201.462 48.5533 200.578 49.68C199.694 50.7893 198.594 51.5173 197.276 51.864L199.356 58ZM194.65 48.276H194.728C195.491 48.276 196.098 48.094 196.548 47.73C197.016 47.3487 197.25 46.8373 197.25 46.196C197.25 45.728 197.068 45.338 196.704 45.026C196.34 44.714 195.907 44.558 195.404 44.558H191.998L191.166 48.276H194.65ZM211.32 58.312C208.789 58.312 206.692 57.584 205.028 56.128C203.364 54.672 202.532 52.774 202.532 50.434C202.532 47.626 203.511 45.2513 205.47 43.31C207.428 41.3513 209.864 40.372 212.776 40.372C215.289 40.372 217.378 41.1 219.042 42.556C220.723 43.9947 221.564 45.8753 221.564 48.198C221.564 51.0233 220.584 53.4153 218.626 55.374C216.667 57.3327 214.232 58.312 211.32 58.312ZM211.58 54.36C213.088 54.36 214.353 53.7967 215.376 52.67C216.398 51.526 216.91 50.148 216.91 48.536C216.91 47.288 216.502 46.274 215.688 45.494C214.873 44.714 213.816 44.324 212.516 44.324C211.008 44.324 209.742 44.896 208.72 46.04C207.697 47.1667 207.186 48.536 207.186 50.148C207.186 51.396 207.593 52.41 208.408 53.19C209.222 53.97 210.28 54.36 211.58 54.36ZM231.824 58H221.658L225.48 40.658H234.528C236.071 40.658 237.267 41.074 238.116 41.906C238.965 42.738 239.39 43.7347 239.39 44.896C239.39 46.0227 238.991 47.028 238.194 47.912C237.414 48.796 236.504 49.2813 235.464 49.368C236.244 49.576 236.851 50.0093 237.284 50.668C237.717 51.3267 237.934 52.046 237.934 52.826C237.934 53.45 237.821 54.0567 237.596 54.646C237.371 55.2353 237.024 55.79 236.556 56.31C236.105 56.8127 235.473 57.22 234.658 57.532C233.843 57.844 232.899 58 231.824 58ZM232.786 47.314C233.427 47.314 233.887 47.158 234.164 46.846C234.459 46.5167 234.606 46.1267 234.606 45.676C234.606 45.312 234.476 45.0173 234.216 44.792C233.973 44.5493 233.653 44.428 233.254 44.428H229.146L228.496 47.314H232.786ZM231.434 54.23C232.058 54.23 232.552 54.0653 232.916 53.736C233.28 53.3893 233.462 52.9647 233.462 52.462C233.462 52.0633 233.332 51.7427 233.072 51.5C232.812 51.24 232.465 51.11 232.032 51.11H227.664L226.962 54.23H231.434ZM248.898 58.312C246.367 58.312 244.27 57.584 242.606 56.128C240.942 54.672 240.11 52.774 240.11 50.434C240.11 47.626 241.089 45.2513 243.048 43.31C245.006 41.3513 247.442 40.372 250.354 40.372C252.867 40.372 254.956 41.1 256.62 42.556C258.301 43.9947 259.142 45.8753 259.142 48.198C259.142 51.0233 258.162 53.4153 256.204 55.374C254.245 57.3327 251.81 58.312 248.898 58.312ZM249.158 54.36C250.666 54.36 251.931 53.7967 252.954 52.67C253.976 51.526 254.488 50.148 254.488 48.536C254.488 47.288 254.08 46.274 253.266 45.494C252.451 44.714 251.394 44.324 250.094 44.324C248.586 44.324 247.32 44.896 246.298 46.04C245.275 47.1667 244.764 48.536 244.764 50.148C244.764 51.396 245.171 52.41 245.986 53.19C246.8 53.97 247.858 54.36 249.158 54.36ZM274.03 58H269.09L267.478 52.176H264.982L263.708 58H259.236L263.058 40.658H270.962C272.505 40.658 273.822 41.126 274.914 42.062C276.023 42.998 276.578 44.22 276.578 45.728C276.578 47.236 276.136 48.5533 275.252 49.68C274.368 50.7893 273.267 51.5173 271.95 51.864L274.03 58ZM269.324 48.276H269.402C270.165 48.276 270.771 48.094 271.222 47.73C271.69 47.3487 271.924 46.8373 271.924 46.196C271.924 45.728 271.742 45.338 271.378 45.026C271.014 44.714 270.581 44.558 270.078 44.558H266.672L265.84 48.276H269.324ZM285.994 58.312C283.463 58.312 281.366 57.584 279.702 56.128C278.038 54.672 277.206 52.774 277.206 50.434C277.206 47.626 278.185 45.2513 280.144 43.31C282.102 41.3513 284.538 40.372 287.45 40.372C289.963 40.372 292.052 41.1 293.716 42.556C295.397 43.9947 296.238 45.8753 296.238 48.198C296.238 51.0233 295.258 53.4153 293.3 55.374C291.341 57.3327 288.906 58.312 285.994 58.312ZM286.254 54.36C287.762 54.36 289.027 53.7967 290.05 52.67C291.072 51.526 291.584 50.148 291.584 48.536C291.584 47.288 291.176 46.274 290.362 45.494C289.547 44.714 288.49 44.324 287.19 44.324C285.682 44.324 284.416 44.896 283.394 46.04C282.371 47.1667 281.86 48.536 281.86 50.148C281.86 51.396 282.267 52.41 283.082 53.19C283.896 53.97 284.954 54.36 286.254 54.36ZM304.184 58.312C302.433 58.312 300.821 58.0173 299.348 57.428C297.874 56.8213 296.73 56.0153 295.916 55.01L298.646 51.786C299.252 52.5833 300.093 53.2333 301.168 53.736C302.242 54.2213 303.369 54.464 304.548 54.464C305.206 54.464 305.7 54.3253 306.03 54.048C306.376 53.7707 306.55 53.45 306.55 53.086C306.55 52.7913 306.342 52.5227 305.926 52.28C305.51 52.02 304.99 51.7947 304.366 51.604C303.759 51.4133 303.092 51.1707 302.364 50.876C301.636 50.5813 300.96 50.2607 300.336 49.914C299.729 49.55 299.218 49.0647 298.802 48.458C298.386 47.834 298.178 47.1233 298.178 46.326C298.178 44.7487 298.81 43.3707 300.076 42.192C301.358 40.996 303.092 40.398 305.276 40.398C306.697 40.398 308.04 40.6493 309.306 41.152C310.588 41.6373 311.663 42.3393 312.53 43.258L309.8 46.378C309.158 45.6847 308.352 45.156 307.382 44.792C306.428 44.4107 305.492 44.22 304.574 44.22C304.071 44.22 303.664 44.3413 303.352 44.584C303.04 44.8093 302.884 45.0953 302.884 45.442C302.884 45.7713 303.17 46.0747 303.742 46.352C304.331 46.6293 305.033 46.9067 305.848 47.184C306.662 47.4613 307.477 47.7907 308.292 48.172C309.124 48.536 309.826 49.0647 310.398 49.758C310.987 50.4513 311.282 51.266 311.282 52.202C311.282 53.9527 310.632 55.4087 309.332 56.57C308.049 57.7313 306.333 58.312 304.184 58.312Z" fill="white"/>
</svg>
