<svg width="200" height="58" viewBox="0 0 200 58" fill="none" xmlns="http://www.w3.org/2000/svg">
<path d="M25.788 37.94C23.257 37.94 21.16 37.212 19.496 35.756C17.832 34.3 17 32.402 17 30.062C17 27.254 17.979 24.8793 19.938 22.938C21.897 20.9793 24.332 20 27.244 20C29.757 20 31.846 20.728 33.51 22.184C35.191 23.6227 36.032 25.5033 36.032 27.826C36.032 30.6513 35.053 33.0433 33.094 35.002C31.135 36.9607 28.7 37.94 25.788 37.94ZM26.048 33.988C27.556 33.988 28.821 33.4247 29.844 32.298C30.867 31.154 31.378 29.776 31.378 28.164C31.378 26.916 30.971 25.902 30.156 25.122C29.341 24.342 28.284 23.952 26.984 23.952C25.476 23.952 24.211 24.524 23.188 25.668C22.165 26.7947 21.654 28.164 21.654 29.776C21.654 31.024 22.061 32.038 22.876 32.818C23.691 33.598 24.748 33.988 26.048 33.988ZM45.486 37.94C42.904 37.94 40.928 37.3853 39.558 36.276C38.206 35.1493 37.53 33.6413 37.53 31.752C37.53 31.4227 37.574 31.0413 37.66 30.608L39.948 20.286H44.498L42.236 30.504C42.184 30.6253 42.158 30.868 42.158 31.232C42.176 32.012 42.47 32.6793 43.042 33.234C43.632 33.7713 44.446 34.04 45.486 34.04C47.67 34.04 49.022 32.8613 49.542 30.504L51.804 20.286H56.328L54.066 30.582C53.546 32.8873 52.61 34.69 51.258 35.99C49.924 37.29 48 37.94 45.486 37.94ZM70.42 37.628H65.48L63.868 31.804H61.372L60.098 37.628H55.626L59.448 20.286H67.352C68.895 20.286 70.212 20.754 71.304 21.69C72.414 22.626 72.968 23.848 72.968 25.356C72.968 26.864 72.526 28.1813 71.642 29.308C70.758 30.4173 69.658 31.1453 68.34 31.492L70.42 37.628ZM65.714 27.904H65.792C66.555 27.904 67.162 27.722 67.612 27.358C68.08 26.9767 68.314 26.4653 68.314 25.824C68.314 25.356 68.132 24.966 67.768 24.654C67.404 24.342 66.971 24.186 66.468 24.186H63.062L62.23 27.904H65.714ZM82.384 37.94C79.853 37.94 77.756 37.212 76.092 35.756C74.428 34.3 73.596 32.402 73.596 30.062C73.596 27.254 74.575 24.8793 76.534 22.938C78.492 20.9793 80.928 20 83.84 20C86.353 20 88.442 20.728 90.106 22.184C91.787 23.6227 92.628 25.5033 92.628 27.826C92.628 30.6513 91.648 33.0433 89.69 35.002C87.731 36.9607 85.296 37.94 82.384 37.94ZM82.644 33.988C84.152 33.988 85.417 33.4247 86.44 32.298C87.462 31.154 87.974 29.776 87.974 28.164C87.974 26.916 87.566 25.902 86.752 25.122C85.937 24.342 84.88 23.952 83.58 23.952C82.072 23.952 80.806 24.524 79.784 25.668C78.761 26.7947 78.25 28.164 78.25 29.776C78.25 31.024 78.657 32.038 79.472 32.818C80.286 33.598 81.344 33.988 82.644 33.988ZM102.888 37.628H92.722L96.544 20.286H105.592C107.135 20.286 108.331 20.702 109.18 21.534C110.029 22.366 110.454 23.3627 110.454 24.524C110.454 25.6507 110.055 26.656 109.258 27.54C108.478 28.424 107.568 28.9093 106.528 28.996C107.308 29.204 107.915 29.6373 108.348 30.296C108.781 30.9547 108.998 31.674 108.998 32.454C108.998 33.078 108.885 33.6847 108.66 34.274C108.435 34.8633 108.088 35.418 107.62 35.938C107.169 36.4407 106.537 36.848 105.722 37.16C104.907 37.472 103.963 37.628 102.888 37.628ZM103.85 26.942C104.491 26.942 104.951 26.786 105.228 26.474C105.523 26.1447 105.67 25.7547 105.67 25.304C105.67 24.94 105.54 24.6453 105.28 24.42C105.037 24.1773 104.717 24.056 104.318 24.056H100.21L99.56 26.942H103.85ZM102.498 33.858C103.122 33.858 103.616 33.6933 103.98 33.364C104.344 33.0173 104.526 32.5927 104.526 32.09C104.526 31.6913 104.396 31.3707 104.136 31.128C103.876 30.868 103.529 30.738 103.096 30.738H98.728L98.026 33.858H102.498ZM119.962 37.94C117.431 37.94 115.334 37.212 113.67 35.756C112.006 34.3 111.174 32.402 111.174 30.062C111.174 27.254 112.153 24.8793 114.112 22.938C116.07 20.9793 118.506 20 121.418 20C123.931 20 126.02 20.728 127.684 22.184C129.365 23.6227 130.206 25.5033 130.206 27.826C130.206 30.6513 129.226 33.0433 127.268 35.002C125.309 36.9607 122.874 37.94 119.962 37.94ZM120.222 33.988C121.73 33.988 122.995 33.4247 124.018 32.298C125.04 31.154 125.552 29.776 125.552 28.164C125.552 26.916 125.144 25.902 124.33 25.122C123.515 24.342 122.458 23.952 121.158 23.952C119.65 23.952 118.384 24.524 117.362 25.668C116.339 26.7947 115.828 28.164 115.828 29.776C115.828 31.024 116.235 32.038 117.05 32.818C117.864 33.598 118.922 33.988 120.222 33.988ZM145.094 37.628H140.154L138.542 31.804H136.046L134.772 37.628H130.3L134.122 20.286H142.026C143.569 20.286 144.886 20.754 145.978 21.69C147.087 22.626 147.642 23.848 147.642 25.356C147.642 26.864 147.2 28.1813 146.316 29.308C145.432 30.4173 144.331 31.1453 143.014 31.492L145.094 37.628ZM140.388 27.904H140.466C141.229 27.904 141.835 27.722 142.286 27.358C142.754 26.9767 142.988 26.4653 142.988 25.824C142.988 25.356 142.806 24.966 142.442 24.654C142.078 24.342 141.645 24.186 141.142 24.186H137.736L136.904 27.904H140.388ZM157.058 37.94C154.527 37.94 152.43 37.212 150.766 35.756C149.102 34.3 148.27 32.402 148.27 30.062C148.27 27.254 149.249 24.8793 151.208 22.938C153.166 20.9793 155.602 20 158.514 20C161.027 20 163.116 20.728 164.78 22.184C166.461 23.6227 167.302 25.5033 167.302 27.826C167.302 30.6513 166.322 33.0433 164.364 35.002C162.405 36.9607 159.97 37.94 157.058 37.94ZM157.318 33.988C158.826 33.988 160.091 33.4247 161.114 32.298C162.136 31.154 162.648 29.776 162.648 28.164C162.648 26.916 162.24 25.902 161.426 25.122C160.611 24.342 159.554 23.952 158.254 23.952C156.746 23.952 155.48 24.524 154.458 25.668C153.435 26.7947 152.924 28.164 152.924 29.776C152.924 31.024 153.331 32.038 154.146 32.818C154.96 33.598 156.018 33.988 157.318 33.988ZM175.248 37.94C173.497 37.94 171.885 37.6453 170.412 37.056C168.938 36.4493 167.794 35.6433 166.98 34.638L169.71 31.414C170.316 32.2113 171.157 32.8613 172.232 33.364C173.306 33.8493 174.433 34.092 175.612 34.092C176.27 34.092 176.764 33.9533 177.094 33.676C177.44 33.3987 177.614 33.078 177.614 32.714C177.614 32.4193 177.406 32.1507 176.99 31.908C176.574 31.648 176.054 31.4227 175.43 31.232C174.823 31.0413 174.156 30.7987 173.428 30.504C172.7 30.2093 172.024 29.8887 171.4 29.542C170.793 29.178 170.282 28.6927 169.866 28.086C169.45 27.462 169.242 26.7513 169.242 25.954C169.242 24.3767 169.874 22.9987 171.14 21.82C172.422 20.624 174.156 20.026 176.34 20.026C177.761 20.026 179.104 20.2773 180.37 20.78C181.652 21.2653 182.727 21.9673 183.594 22.886L180.864 26.006C180.222 25.3127 179.416 24.784 178.446 24.42C177.492 24.0387 176.556 23.848 175.638 23.848C175.135 23.848 174.728 23.9693 174.416 24.212C174.104 24.4373 173.948 24.7233 173.948 25.07C173.948 25.3993 174.234 25.7027 174.806 25.98C175.395 26.2573 176.097 26.5347 176.912 26.812C177.726 27.0893 178.541 27.4187 179.356 27.8C180.188 28.164 180.89 28.6927 181.462 29.386C182.051 30.0793 182.346 30.894 182.346 31.83C182.346 33.5807 181.696 35.0367 180.396 36.198C179.113 37.3593 177.397 37.94 175.248 37.94Z" fill="white"/>
</svg>
