<svg width="40" height="40" viewBox="0 0 40 40" fill="none" xmlns="http://www.w3.org/2000/svg">
<circle cx="20" cy="20" r="20" fill="#6C27FF"/>
<g clip-path="url(#clip0)">
<path d="M23.4041 13.268C23.0003 13.0626 22.5064 13.2236 22.301 13.6275L16.1994 25.6285C15.994 26.0324 16.155 26.5262 16.5589 26.7316C16.678 26.7922 16.805 26.8209 16.93 26.8209C17.229 26.8209 17.5172 26.6569 17.662 26.3721L23.7636 14.3711C23.969 13.9672 23.808 13.4734 23.4041 13.268Z" fill="white"/>
<path d="M19.023 17.2199C19.023 15.5042 17.6271 14.1084 15.9115 14.1084C14.1959 14.1084 12.8 15.5042 12.8 17.2199C12.8 18.9355 14.1959 20.3314 15.9115 20.3314C17.6272 20.3314 19.023 18.9355 19.023 17.2199ZM15.9115 18.6906C15.1006 18.6906 14.4409 18.0308 14.4409 17.2199C14.4409 16.409 15.1006 15.7492 15.9115 15.7492C16.7225 15.7492 17.3822 16.4089 17.3822 17.2199C17.3822 18.0308 16.7225 18.6906 15.9115 18.6906Z" fill="white"/>
<path d="M24.0886 19.6685C22.3729 19.6685 20.9771 21.0643 20.9771 22.7799C20.9771 24.4955 22.3728 25.8914 24.0886 25.8914C25.8042 25.8914 27.2 24.4956 27.2 22.7799C27.2 21.0642 25.8043 19.6685 24.0886 19.6685ZM24.0886 24.2505C23.2776 24.2505 22.6179 23.5908 22.6179 22.7799C22.6179 21.969 23.2776 21.3092 24.0886 21.3092C24.8995 21.3092 25.5592 21.969 25.5592 22.7799C25.5592 23.5908 24.8995 24.2505 24.0886 24.2505Z" fill="white"/>
</g>
<defs>
<clipPath id="clip0">
<rect width="14.4" height="14.4" fill="white" transform="translate(12.8 12.7998)"/>
</clipPath>
</defs>
</svg>
