<svg width="40" height="40" viewBox="0 0 40 40" fill="none" xmlns="http://www.w3.org/2000/svg">
<circle cx="20" cy="20" r="20" fill="#6C27FF"/>
<g clip-path="url(#clip0)">
<path d="M27.6011 18.0913C27.9271 17.7736 28.0421 17.3073 27.9015 16.8744C27.7608 16.4415 27.3937 16.132 26.9432 16.0666L23.0047 15.4943C22.9274 15.483 22.8606 15.4345 22.826 15.3644L21.0646 11.7955C20.8632 11.3873 20.4553 11.1338 20.0001 11.1338C19.545 11.1338 19.1371 11.3873 18.9357 11.7955L17.1743 15.3644C17.1397 15.4345 17.0729 15.483 16.9955 15.4943L13.0571 16.0666C12.6066 16.132 12.2395 16.4415 12.0988 16.8744C11.9581 17.3073 12.0732 17.7736 12.3992 18.0913L15.2491 20.8693C15.3051 20.9239 15.3306 21.0024 15.3174 21.0795L14.6446 25.0021C14.5677 25.4507 14.7486 25.8955 15.1168 26.1631C15.4851 26.4307 15.9642 26.4652 16.367 26.2535L19.8897 24.4015C19.9589 24.3651 20.0414 24.3651 20.1107 24.4015L23.6334 26.2535C23.8086 26.3456 23.9982 26.3911 24.1869 26.3911C24.4319 26.3911 24.6754 26.3143 24.8834 26.163C25.2517 25.8954 25.4326 25.4506 25.3557 25.002L24.6829 21.0794C24.6697 21.0024 24.6952 20.9238 24.7512 20.8693L27.6011 18.0913ZM23.747 21.24L24.4198 25.1627C24.4423 25.294 24.3612 25.3688 24.3253 25.3949C24.2894 25.4209 24.1932 25.4749 24.0753 25.4129L20.5526 23.5609C20.3796 23.47 20.1899 23.4245 20.0002 23.4245C19.8105 23.4245 19.6207 23.47 19.4478 23.5609L15.9251 25.4128C15.8072 25.4748 15.711 25.4208 15.6751 25.3948C15.6392 25.3687 15.5581 25.2939 15.5807 25.1626L16.2535 21.24C16.3195 20.8549 16.1919 20.4621 15.9121 20.1893L13.0621 17.4113C12.9667 17.3183 12.9883 17.2101 13.0021 17.1679C13.0158 17.1257 13.0619 17.0255 13.1937 17.0064L17.1322 16.4341C17.5188 16.3779 17.853 16.1352 18.026 15.7847L19.7873 12.2158C19.8463 12.0963 19.9558 12.0834 20.0002 12.0834C20.0446 12.0834 20.1541 12.0963 20.2131 12.2158V12.2158L21.9745 15.7847C22.1474 16.1352 22.4815 16.3779 22.8682 16.4341L26.8067 17.0064C26.9385 17.0255 26.9847 17.1258 26.9984 17.168C27.0121 17.2102 27.0337 17.3184 26.9383 17.4114L24.0884 20.1894C23.8085 20.4621 23.6809 20.8549 23.747 21.24Z" fill="white"/>
<path d="M25.547 11.7953C25.3348 11.6412 25.0379 11.6882 24.8838 11.9003L24.3798 12.594C24.2257 12.8062 24.2727 13.1031 24.4848 13.2573C24.5692 13.3185 24.6668 13.348 24.7635 13.348C24.9104 13.348 25.0552 13.2801 25.148 13.1523L25.6521 12.4586C25.8062 12.2464 25.7592 11.9494 25.547 11.7953Z" fill="white"/>
<path d="M15.6179 12.5916L15.1139 11.8978C14.9598 11.6858 14.6628 11.6387 14.4506 11.7928C14.2385 11.9469 14.1915 12.2439 14.3456 12.456L14.8496 13.1497C14.9425 13.2777 15.0873 13.3455 15.2342 13.3455C15.331 13.3455 15.4287 13.316 15.5129 13.2548C15.725 13.1007 15.7721 12.8037 15.6179 12.5916Z" fill="white"/>
<path d="M12.7421 21.7872C12.661 21.5378 12.3932 21.4013 12.1437 21.4823L11.3282 21.7474C11.0788 21.8284 10.9423 22.0963 11.0234 22.3457C11.0886 22.5464 11.2747 22.6739 11.4748 22.6739C11.5235 22.6739 11.5729 22.6664 11.6217 22.6505L12.4372 22.3855C12.6866 22.3045 12.8231 22.0366 12.7421 21.7872Z" fill="white"/>
<path d="M20.0002 27.0586C19.738 27.0586 19.5254 27.2712 19.5254 27.5334V28.3909C19.5254 28.6532 19.738 28.8658 20.0002 28.8658C20.2624 28.8658 20.475 28.6532 20.475 28.3909V27.5334C20.475 27.2711 20.2625 27.0586 20.0002 27.0586Z" fill="white"/>
<path d="M28.6718 21.7473L27.8563 21.4823C27.607 21.4014 27.339 21.5378 27.258 21.7872C27.177 22.0366 27.3134 22.3045 27.5628 22.3855L28.3784 22.6505C28.4271 22.6664 28.4765 22.6739 28.5252 22.6739C28.7254 22.6739 28.9115 22.5463 28.9767 22.3456C29.0577 22.0962 28.9212 21.8284 28.6718 21.7473Z" fill="white"/>
</g>
<defs>
<clipPath id="clip0">
<rect width="18" height="18" fill="white" transform="translate(11 11)"/>
</clipPath>
</defs>
</svg>
