<svg width="101" height="101" viewBox="0 0 101 101" fill="none" xmlns="http://www.w3.org/2000/svg">
<path d="M44 3.75278C48.0222 1.43055 52.9778 1.43055 57 3.75278L87.7343 21.4972C91.7565 23.8194 94.2343 28.1111 94.2343 32.7556V68.2444C94.2343 72.8889 91.7565 77.1805 87.7343 79.5028L57 97.2472C52.9778 99.5695 48.0222 99.5695 44 97.2472L13.2657 79.5028C9.2435 77.1805 6.76572 72.8889 6.76572 68.2444V32.7556C6.76572 28.1111 9.2435 23.8194 13.2657 21.4972L44 3.75278Z" fill="#FFE600" fill-opacity="0.11"/>
<g filter="url(#filter0_i)">
<path d="M44.1681 13.7528C48.1903 11.4306 53.1459 11.4306 57.1681 13.7528L79.3878 26.5813C83.41 28.9035 85.8878 33.1952 85.8878 37.8396V63.4966C85.8878 68.1411 83.41 72.4328 79.3878 74.755L57.1682 87.5835C53.1459 89.9057 48.1904 89.9057 44.1681 87.5835L21.9485 74.755C17.9263 72.4328 15.4485 68.1411 15.4485 63.4967V37.8396C15.4485 33.1952 17.9263 28.9035 21.9485 26.5813L44.1681 13.7528Z" fill="#FFE600"/>
</g>
<g clip-path="url(#clip0)">
<path d="M65.1458 63.9167H35.8542C33.7297 63.9167 32 62.187 32 60.0625V56.9792C32 56.5537 32.3453 56.2084 32.7708 56.2084H33.5417C35.2421 56.2084 36.625 54.8255 36.625 53.125C36.625 51.4246 35.2421 50.0417 33.5417 50.0417H32.7708C32.3453 50.0417 32 49.6964 32 49.2709V46.1875C32 44.0631 33.7297 42.3334 35.8542 42.3334H65.1458C67.2702 42.3334 69 44.0631 69 46.1875V49.2709C69 49.6964 68.6547 50.0417 68.2292 50.0417H67.4583C65.7579 50.0417 64.375 51.4246 64.375 53.125C64.375 53.9483 64.6957 54.7222 65.2784 55.305C65.8596 55.8877 66.6335 56.2084 67.4568 56.2084H68.2276C68.6531 56.2084 68.9985 56.5537 68.9985 56.9792V60.0625C69 62.187 67.2702 63.9167 65.1458 63.9167ZM33.5417 57.75V60.0625C33.5417 61.3375 34.5792 62.375 35.8542 62.375H65.1458C66.4208 62.375 67.4583 61.3375 67.4583 60.0625V57.75H67.4568C66.2219 57.75 65.061 57.269 64.1885 56.3965C63.3143 55.5223 62.8333 54.3599 62.8333 53.125C62.8333 50.5751 64.9084 48.5 67.4583 48.5V46.1875C67.4583 44.9126 66.4208 43.875 65.1458 43.875H35.8542C34.5792 43.875 33.5417 44.9126 33.5417 46.1875V48.5C36.0916 48.5 38.1667 50.5751 38.1667 53.125C38.1667 55.675 36.0916 57.75 33.5417 57.75Z" fill="#111348"/>
<path d="M45.1041 45.4167C44.6786 45.4167 44.3333 45.0714 44.3333 44.6459V43.1042C44.3333 42.6787 44.6786 42.3334 45.1041 42.3334C45.5296 42.3334 45.8749 42.6787 45.8749 43.1042V44.6459C45.8749 45.0714 45.5296 45.4167 45.1041 45.4167Z" fill="#111348"/>
<path d="M45.1041 58.4607C44.6786 58.4607 44.3333 58.1154 44.3333 57.6899V55.0829C44.3333 54.6574 44.6786 54.3121 45.1041 54.3121C45.5296 54.3121 45.8749 54.6559 45.8749 55.0829V57.6914C45.8749 58.1169 45.5296 58.4607 45.1041 58.4607ZM45.1041 51.9395C44.6786 51.9395 44.3333 51.5941 44.3333 51.1686V48.5601C44.3333 48.1346 44.6786 47.7893 45.1041 47.7893C45.5296 47.7893 45.8749 48.1346 45.8749 48.5601V51.1686C45.8749 51.5941 45.5296 51.9395 45.1041 51.9395Z" fill="#111348"/>
<path d="M45.1041 63.9167C44.6786 63.9167 44.3333 63.5713 44.3333 63.1458V61.6041C44.3333 61.1786 44.6786 60.8333 45.1041 60.8333C45.5296 60.8333 45.8749 61.1786 45.8749 61.6041V63.1458C45.8749 63.5713 45.5296 63.9167 45.1041 63.9167Z" fill="#111348"/>
<path d="M35.8541 43.875C35.5411 43.875 35.2466 43.6839 35.1326 43.374C34.983 42.9747 35.185 42.5307 35.5843 42.3827L60.0968 33.2298C61.2885 32.7827 62.6883 33.4518 63.0953 34.6528L65.8749 42.856C66.0106 43.2599 65.7948 43.6962 65.3924 43.8334C64.9931 43.9706 64.5522 43.7532 64.415 43.3509L61.6354 35.1476C61.4997 34.7468 61.0341 34.5279 60.6348 34.6728L36.1223 43.8257C36.0344 43.8596 35.9435 43.875 35.8541 43.875Z" fill="#111348"/>
</g>
<defs>
<filter id="filter0_i" x="15.4485" y="12.0111" width="70.4393" height="77.3141" filterUnits="userSpaceOnUse" color-interpolation-filters="sRGB">
<feFlood flood-opacity="0" result="BackgroundImageFix"/>
<feBlend mode="normal" in="SourceGraphic" in2="BackgroundImageFix" result="shape"/>
<feColorMatrix in="SourceAlpha" type="matrix" values="0 0 0 0 0 0 0 0 0 0 0 0 0 0 0 0 0 0 127 0" result="hardAlpha"/>
<feOffset/>
<feGaussianBlur stdDeviation="13"/>
<feComposite in2="hardAlpha" operator="arithmetic" k2="-1" k3="1"/>
<feColorMatrix type="matrix" values="0 0 0 0 1 0 0 0 0 1 0 0 0 0 1 0 0 0 0.46 0"/>
<feBlend mode="normal" in2="shape" result="effect1_innerShadow"/>
</filter>
<clipPath id="clip0">
<rect width="37" height="37" fill="white" transform="translate(32 30)"/>
</clipPath>
</defs>
</svg>
