<svg width="40" height="40" viewBox="0 0 40 40" fill="none" xmlns="http://www.w3.org/2000/svg">
<circle cx="20" cy="20" r="20" fill="#6C27FF"/>
<g clip-path="url(#clip0)">
<path d="M22.0203 28.2164C21.8554 28.2575 21.6873 28.294 21.5204 28.3247C21.0841 28.4059 20.7956 28.8255 20.8763 29.2622C20.9162 29.477 21.0382 29.6559 21.2038 29.7727C21.3746 29.8929 21.5919 29.9472 21.8133 29.906C22.012 29.8691 22.2123 29.8257 22.4089 29.7766C22.8397 29.6694 23.1022 29.233 22.9947 28.8023C22.8875 28.3714 22.4514 28.1091 22.0203 28.2164Z" fill="white"/>
<path d="M27.966 17.4397C28.0223 17.6094 28.1298 17.748 28.2657 17.8437C28.467 17.9855 28.7305 18.0333 28.982 17.9501C29.4036 17.8101 29.632 17.3555 29.4925 16.9342C29.429 16.7421 29.3585 16.5494 29.2834 16.3618C29.1184 15.9495 28.6508 15.7487 28.2383 15.9137C27.8262 16.0785 27.6254 16.5463 27.7904 16.9587C27.8535 17.1164 27.9126 17.2783 27.966 17.4397Z" fill="white"/>
<path d="M24.6327 27.0689C24.4909 27.1625 24.3445 27.2532 24.1971 27.3381C23.8123 27.56 23.6806 28.0518 23.9024 28.4364C23.9626 28.541 24.0428 28.6265 24.1352 28.6918C24.3833 28.8663 24.7201 28.8925 25.0005 28.7309C25.1759 28.6298 25.3502 28.5222 25.5191 28.4105C25.8894 28.1658 25.9914 27.667 25.7466 27.2965C25.5018 26.9259 25.0032 26.8241 24.6327 27.0689Z" fill="white"/>
<path d="M29.9924 19.6856C29.9749 19.2418 29.6011 18.8964 29.1572 18.9137C28.7139 18.9312 28.3682 19.3051 28.3856 19.7487C28.3923 19.9183 28.394 20.0905 28.3901 20.2599C28.3839 20.5382 28.52 20.7862 28.7315 20.9353C28.8575 21.0241 29.0104 21.0778 29.1763 21.0816C29.62 21.0914 29.9878 20.7394 29.9976 20.2954C30.0021 20.093 30.0004 19.8879 29.9924 19.6856Z" fill="white"/>
<path d="M27.8346 24.9536C27.4788 24.6866 26.9753 24.7591 26.7088 25.1143C26.6068 25.2503 26.4993 25.3847 26.3892 25.514C26.1016 25.852 26.1422 26.3595 26.4801 26.6474C26.4994 26.6637 26.5189 26.6787 26.5391 26.6928C26.875 26.9296 27.3419 26.8752 27.6135 26.5565C27.745 26.4021 27.8731 26.2416 27.9951 26.0792C28.2616 25.724 28.1895 25.2202 27.8346 24.9536Z" fill="white"/>
<path d="M29.0165 22.0473C28.5928 21.9144 28.1416 22.1503 28.0089 22.574C27.9581 22.7359 27.9017 22.8985 27.8409 23.0578C27.7074 23.4084 27.8354 23.7942 28.1286 24.001C28.1823 24.0388 28.2416 24.0708 28.3059 24.0951C28.7208 24.2534 29.1853 24.0453 29.3434 23.6303C29.4156 23.4409 29.4826 23.2474 29.5432 23.055C29.6758 22.6312 29.4401 22.1801 29.0165 22.0473Z" fill="white"/>
<path d="M18.5124 28.3322C17.7936 28.2031 17.104 27.9833 16.4502 27.6768C16.4424 27.6728 16.4355 27.6682 16.4274 27.6645C16.2733 27.5919 16.1195 27.5143 15.9704 27.4331C15.9698 27.4325 15.9689 27.4321 15.9681 27.4318C15.6945 27.2811 15.4275 27.1144 15.1682 26.9318C11.3861 24.2676 10.4767 19.0231 13.1411 15.241C13.7204 14.4189 14.4216 13.733 15.2032 13.1894C15.2128 13.1827 15.2225 13.1761 15.232 13.1693C17.9864 11.2715 21.7264 11.1436 24.6511 13.0938L24.023 14.0014C23.8484 14.254 23.9558 14.4381 24.2615 14.4106L26.9901 14.1663C27.2962 14.1388 27.4793 13.874 27.3969 13.5784L26.6642 10.9384C26.5822 10.6425 26.3722 10.607 26.1974 10.8596L25.5677 11.7694C23.4214 10.3286 20.8471 9.77917 18.2919 10.2223C18.0345 10.2668 17.7808 10.3213 17.5306 10.3848C17.5286 10.3851 17.5271 10.3853 17.5255 10.3857C17.5158 10.388 17.506 10.3912 17.4966 10.3938C15.2933 10.9596 13.3709 12.2447 11.9991 14.0782C11.9876 14.0919 11.9757 14.1054 11.9647 14.1203C11.9191 14.1817 11.8738 14.2446 11.8295 14.3074C11.757 14.4104 11.6856 14.516 11.6172 14.6216C11.6087 14.6343 11.6021 14.6473 11.5947 14.6601C10.4627 16.4143 9.91666 18.4422 10.0103 20.5068C10.0105 20.5136 10.0101 20.5204 10.0103 20.5274C10.0194 20.729 10.0354 20.9335 10.0571 21.1348C10.0582 21.1478 10.0611 21.1601 10.0633 21.1731C10.0858 21.3755 10.1139 21.5784 10.1492 21.7812C10.5079 23.8508 11.4842 25.7131 12.9471 27.1621C12.9505 27.1655 12.954 27.1692 12.9575 27.1727C12.9587 27.1741 12.96 27.1747 12.9612 27.176C13.3542 27.5637 13.7817 27.9222 14.242 28.2464C15.4467 29.0953 16.7881 29.6563 18.2287 29.9149C18.6658 29.9934 19.0833 29.7024 19.1617 29.2655C19.2401 28.8284 18.9494 28.4105 18.5124 28.3322Z" fill="white"/>
<path d="M19.5065 13.5771C19.1469 13.5771 18.8557 13.8686 18.8557 14.2277V20.7086L24.783 23.7727C24.8784 23.8221 24.9806 23.8454 25.0811 23.8454C25.3165 23.8454 25.5439 23.7172 25.6595 23.4935C25.8244 23.1742 25.6996 22.782 25.3804 22.6171L20.1565 19.9164V14.2277C20.1565 13.8686 19.8656 13.5771 19.5065 13.5771Z" fill="white"/>
</g>
<defs>
<clipPath id="clip0">
<rect width="20" height="20" fill="white" transform="translate(10 10)"/>
</clipPath>
</defs>
</svg>
