<svg width="26" height="26" viewBox="0 0 26 26" fill="none" xmlns="http://www.w3.org/2000/svg">
<path d="M23.5192 10.0642L19.1859 5.73083C19.0849 5.62982 18.965 5.5497 18.833 5.49503C18.701 5.44037 18.5596 5.41223 18.4167 5.41223C18.1282 5.41223 17.8516 5.52684 17.6476 5.73083C17.4436 5.93483 17.329 6.2115 17.329 6.5C17.329 6.78849 17.4436 7.06517 17.6476 7.26916L20.1392 9.75H7.5834C7.29609 9.75 7.02054 9.86413 6.81737 10.0673C6.61421 10.2705 6.50007 10.546 6.50007 10.8333C6.50007 11.1206 6.61421 11.3962 6.81737 11.5994C7.02054 11.8025 7.29609 11.9167 7.5834 11.9167H22.7501C22.9639 11.9156 23.1727 11.8512 23.3501 11.7317C23.5275 11.6122 23.6655 11.4428 23.7467 11.245C23.8297 11.0477 23.8524 10.8303 23.8119 10.6201C23.7714 10.41 23.6696 10.2165 23.5192 10.0642ZM18.4167 14.0833H3.25007C3.03619 14.0844 2.82742 14.1488 2.65005 14.2683C2.47269 14.3878 2.33467 14.5572 2.2534 14.755C2.17044 14.9523 2.14778 15.1697 2.18826 15.3799C2.22875 15.59 2.33058 15.7835 2.4809 15.9358L6.81424 20.2692C6.91495 20.3707 7.03476 20.4513 7.16678 20.5063C7.29879 20.5613 7.44039 20.5896 7.5834 20.5896C7.72642 20.5896 7.86801 20.5613 8.00003 20.5063C8.13204 20.4513 8.25186 20.3707 8.35257 20.2692C8.45411 20.1685 8.5347 20.0486 8.5897 19.9166C8.6447 19.7846 8.67302 19.643 8.67302 19.5C8.67302 19.357 8.6447 19.2154 8.5897 19.0834C8.5347 18.9514 8.45411 18.8315 8.35257 18.7308L5.8609 16.25H18.4167C18.7041 16.25 18.9796 16.1359 19.1828 15.9327C19.3859 15.7295 19.5001 15.454 19.5001 15.1667C19.5001 14.8793 19.3859 14.6038 19.1828 14.4006C18.9796 14.1975 18.7041 14.0833 18.4167 14.0833Z" fill="white"/>
</svg>
