<svg width="110" height="110" viewBox="0 0 110 110" fill="none" xmlns="http://www.w3.org/2000/svg">
<g filter="url(#filter0_d)">
<circle cx="55" cy="49" r="27" fill="#434686"/>
</g>
<path d="M65.5192 46.0642L61.1859 41.7308C61.0849 41.6298 60.965 41.5497 60.833 41.495C60.701 41.4404 60.5596 41.4122 60.4167 41.4122C60.1282 41.4122 59.8516 41.5268 59.6476 41.7308C59.4436 41.9348 59.329 42.2115 59.329 42.5C59.329 42.7885 59.4436 43.0652 59.6476 43.2692L62.1392 45.75H49.5834C49.2961 45.75 49.0205 45.8641 48.8174 46.0673C48.6142 46.2705 48.5001 46.546 48.5001 46.8333C48.5001 47.1206 48.6142 47.3962 48.8174 47.5994C49.0205 47.8025 49.2961 47.9167 49.5834 47.9167H64.7501C64.9639 47.9156 65.1727 47.8512 65.3501 47.7317C65.5275 47.6122 65.6655 47.4428 65.7467 47.245C65.8297 47.0477 65.8524 46.8303 65.8119 46.6201C65.7714 46.41 65.6696 46.2165 65.5192 46.0642ZM60.4167 50.0833H45.2501C45.0362 50.0844 44.8274 50.1488 44.6501 50.2683C44.4727 50.3878 44.3347 50.5572 44.2534 50.755C44.1704 50.9523 44.1478 51.1697 44.1883 51.3799C44.2288 51.59 44.3306 51.7835 44.4809 51.9358L48.8142 56.2692C48.9149 56.3707 49.0348 56.4513 49.1668 56.5063C49.2988 56.5613 49.4404 56.5896 49.5834 56.5896C49.7264 56.5896 49.868 56.5613 50 56.5063C50.132 56.4513 50.2519 56.3707 50.3526 56.2692C50.4541 56.1685 50.5347 56.0486 50.5897 55.9166C50.6447 55.7846 50.673 55.643 50.673 55.5C50.673 55.357 50.6447 55.2154 50.5897 55.0834C50.5347 54.9514 50.4541 54.8315 50.3526 54.7308L47.8609 52.25H60.4167C60.7041 52.25 60.9796 52.1359 61.1828 51.9327C61.3859 51.7295 61.5001 51.454 61.5001 51.1667C61.5001 50.8793 61.3859 50.6038 61.1828 50.4006C60.9796 50.1975 60.7041 50.0833 60.4167 50.0833Z" fill="white"/>
<defs>
<filter id="filter0_d" x="0" y="0" width="110" height="110" filterUnits="userSpaceOnUse" color-interpolation-filters="sRGB">
<feFlood flood-opacity="0" result="BackgroundImageFix"/>
<feColorMatrix in="SourceAlpha" type="matrix" values="0 0 0 0 0 0 0 0 0 0 0 0 0 0 0 0 0 0 127 0"/>
<feOffset dy="6"/>
<feGaussianBlur stdDeviation="14"/>
<feColorMatrix type="matrix" values="0 0 0 0 0.262745 0 0 0 0 0.27451 0 0 0 0 0.52549 0 0 0 0.22 0"/>
<feBlend mode="normal" in2="BackgroundImageFix" result="effect1_dropShadow"/>
<feBlend mode="normal" in="SourceGraphic" in2="effect1_dropShadow" result="shape"/>
</filter>
</defs>
</svg>
