<svg width="59" height="59" viewBox="0 0 59 59" fill="none" xmlns="http://www.w3.org/2000/svg">
<path d="M57.9826 48.8275H1.01729C0.455521 48.8275 0 48.372 0 47.8103V11.1896C0 10.6279 0.455521 10.1724 1.01729 10.1724H57.9827C58.5445 10.1724 59 10.6279 59 11.1896V47.8103C58.9999 48.3721 58.5444 48.8275 57.9826 48.8275Z" fill="#F5F5F5"/>
<path d="M58.9999 13.146H0V11.1896C0 10.6279 0.455521 10.1724 1.01729 10.1724H57.9827C58.5445 10.1724 59 10.6279 59 11.1896L58.9999 13.146Z" fill="#FF4B55"/>
<path d="M58.9999 22.0664H0V25.0399H58.9999V22.0664Z" fill="#FF4B55"/>
<path d="M58.9999 16.1191H0V19.0926H58.9999V16.1191Z" fill="#FF4B55"/>
<path d="M58.9999 30.9868H1.01729C0.455521 30.9868 0 30.5313 0 29.9695V28.0132H58.9999V30.9868Z" fill="#FF4B55"/>
<path d="M58.9999 39.9082H0V42.8817H58.9999V39.9082Z" fill="#FF4B55"/>
<path d="M57.9826 48.8275H1.01729C0.455521 48.8275 0 48.372 0 47.8102V45.854H58.9999V47.8103C58.9999 48.3721 58.5444 48.8275 57.9826 48.8275Z" fill="#FF4B55"/>
<path d="M58.9999 33.9609H0V36.9344H58.9999V33.9609Z" fill="#FF4B55"/>
<path d="M26.4482 10.1724H1.01729C0.455521 10.1724 0 10.6278 0 11.1895V29.9692C0 30.531 0.455521 30.9865 1.01729 30.9865H26.4483C27.0101 30.9865 27.4656 30.531 27.4656 29.9692V11.1895C27.4655 10.6278 27.01 10.1724 26.4482 10.1724Z" fill="#41479B"/>
<path d="M2.85673 12.507L3.08189 13.1823L3.79369 13.1877C3.88588 13.1885 3.92402 13.306 3.84993 13.3608L3.27733 13.7837L3.49213 14.4623C3.52001 14.5501 3.41987 14.6229 3.34486 14.5692L2.76581 14.1554L2.18675 14.5693C2.11174 14.6229 2.01183 14.5502 2.03949 14.4624L2.25428 13.7838L1.68168 13.3609C1.60759 13.306 1.64573 13.1886 1.73792 13.1878L2.44972 13.1824L2.67489 12.5071C2.70393 12.4195 2.82746 12.4195 2.85673 12.507Z" fill="#F5F5F5"/>
<path d="M2.85673 16.0396L3.08189 16.7149L3.79369 16.7203C3.88588 16.7211 3.92402 16.8387 3.84993 16.8934L3.27733 17.3163L3.49213 17.9949C3.52001 18.0827 3.41987 18.1555 3.34486 18.1018L2.76581 17.688L2.18675 18.102C2.11174 18.1555 2.01183 18.0828 2.03949 17.995L2.25428 17.3164L1.68168 16.8935C1.60759 16.8387 1.64573 16.7212 1.73792 16.7204L2.44972 16.715L2.67489 16.0397C2.70393 15.9523 2.82746 15.9523 2.85673 16.0396Z" fill="#F5F5F5"/>
<path d="M2.85673 19.5718L3.08189 20.2471L3.79369 20.2525C3.88588 20.2533 3.92402 20.3709 3.84993 20.4256L3.27733 20.8485L3.49213 21.5271C3.52001 21.6149 3.41987 21.6878 3.34486 21.6341L2.76581 21.2203L2.18675 21.6342C2.11174 21.6878 2.01183 21.6151 2.03949 21.5273L2.25428 20.8486L1.68168 20.4257C1.60759 20.3709 1.64573 20.2535 1.73792 20.2526L2.44972 20.2472L2.67489 19.572C2.70393 19.4845 2.82746 19.4845 2.85673 19.5718Z" fill="#F5F5F5"/>
<path d="M2.85673 23.1042L3.08189 23.7794L3.79369 23.7848C3.88588 23.7857 3.92402 23.9032 3.84993 23.9579L3.27733 24.3808L3.49213 25.0595C3.52001 25.1473 3.41987 25.2201 3.34486 25.1664L2.76581 24.7526L2.18675 25.1665C2.11174 25.2201 2.01183 25.1474 2.03949 25.0596L2.25428 24.381L1.68168 23.958C1.60759 23.9032 1.64573 23.7858 1.73792 23.785L2.44972 23.7795L2.67489 23.1043C2.70393 23.0167 2.82746 23.0167 2.85673 23.1042Z" fill="#F5F5F5"/>
<path d="M2.85673 26.6365L3.08189 27.3117L3.79369 27.3172C3.88588 27.318 3.92402 27.4355 3.84993 27.4902L3.27733 27.9132L3.49213 28.5918C3.52001 28.6796 3.41987 28.7524 3.34486 28.6987L2.76581 28.2849L2.18675 28.6988C2.11174 28.7524 2.01183 28.6797 2.03949 28.5919L2.25428 27.9133L1.68168 27.4904C1.60759 27.4355 1.64573 27.3181 1.73792 27.3173L2.44972 27.3119L2.67489 26.6366C2.70393 26.5489 2.82746 26.5489 2.85673 26.6365Z" fill="#F5F5F5"/>
<path d="M5.59843 14.2389L5.82359 14.9141L6.53539 14.9195C6.62758 14.9203 6.66572 15.0379 6.59163 15.0926L6.01903 15.5155L6.23383 16.1941C6.26171 16.282 6.16157 16.3548 6.08656 16.3011L5.50751 15.8872L4.92845 16.3011C4.85344 16.3547 4.75353 16.282 4.78119 16.1941L4.99598 15.5155L4.42338 15.0926C4.34929 15.0378 4.38743 14.9203 4.47962 14.9195L5.19142 14.9141L5.41659 14.2389C5.44551 14.1515 5.56927 14.1515 5.59843 14.2389Z" fill="#F5F5F5"/>
<path d="M5.59843 17.7712L5.82359 18.4464L6.53539 18.4518C6.62758 18.4527 6.66572 18.5702 6.59163 18.6249L6.01903 19.0478L6.23383 19.7265C6.26171 19.8143 6.16157 19.8871 6.08656 19.8334L5.50751 19.4195L4.92845 19.8334C4.85344 19.887 4.75353 19.8144 4.78119 19.7265L4.99598 19.0478L4.42338 18.6249C4.34929 18.5701 4.38743 18.4527 4.47962 18.4518L5.19142 18.4464L5.41659 17.7712C5.44551 17.6837 5.56927 17.6837 5.59843 17.7712Z" fill="#F5F5F5"/>
<path d="M5.59843 21.3039L5.82359 21.9791L6.53539 21.9846C6.62758 21.9854 6.66572 22.1029 6.59163 22.1576L6.01903 22.5806L6.23383 23.2592C6.26171 23.347 6.16157 23.4198 6.08656 23.3661L5.50751 22.9522L4.92845 23.3661C4.85344 23.4197 4.75353 23.347 4.78119 23.2592L4.99598 22.5806L4.42338 22.1576C4.34929 22.1028 4.38743 21.9854 4.47962 21.9846L5.19142 21.9791L5.41659 21.3039C5.44551 21.2164 5.56927 21.2164 5.59843 21.3039Z" fill="#F5F5F5"/>
<path d="M5.59843 24.836L5.82359 25.5113L6.53539 25.5167C6.62758 25.5175 6.66572 25.6351 6.59163 25.6898L6.01903 26.1127L6.23383 26.7913C6.26171 26.8791 6.16157 26.952 6.08656 26.8983L5.50751 26.4843L4.92845 26.8983C4.85344 26.9518 4.75353 26.8791 4.78119 26.7913L4.99598 26.1127L4.42338 25.6898C4.34929 25.6349 4.38743 25.5175 4.47962 25.5167L5.19142 25.5113L5.41659 24.836C5.44551 24.7487 5.56927 24.7487 5.59843 24.836Z" fill="#F5F5F5"/>
<path d="M8.34061 12.507L8.56578 13.1823L9.27758 13.1877C9.36977 13.1885 9.40791 13.306 9.33382 13.3608L8.76122 13.7837L8.97602 14.4623C9.0039 14.5501 8.90376 14.6229 8.82875 14.5692L8.24969 14.1553L7.67064 14.5692C7.59562 14.6228 7.49572 14.5501 7.52337 14.4623L7.73817 13.7837L7.16557 13.3608C7.09148 13.3059 7.12962 13.1885 7.2218 13.1877L7.93361 13.1823L8.15877 12.507C8.18781 12.4195 8.31146 12.4195 8.34061 12.507Z" fill="#F5F5F5"/>
<path d="M8.34061 16.0391L8.56578 16.7144L9.27758 16.7198C9.36977 16.7206 9.40791 16.8382 9.33382 16.8929L8.76122 17.3158L8.97602 17.9944C9.0039 18.0822 8.90376 18.1551 8.82875 18.1014L8.24969 17.6875L7.67064 18.1014C7.59562 18.155 7.49572 18.0822 7.52337 17.9944L7.73817 17.3158L7.16557 16.8929C7.09148 16.8381 7.12962 16.7206 7.2218 16.7198L7.93361 16.7144L8.15877 16.0391C8.18781 15.9518 8.31146 15.9518 8.34061 16.0391Z" fill="#F5F5F5"/>
<path d="M8.34061 19.5719L8.56578 20.2471L9.27758 20.2525C9.36977 20.2534 9.40791 20.3709 9.33382 20.4256L8.76122 20.8485L8.97602 21.5272C9.0039 21.615 8.90376 21.6878 8.82875 21.6341L8.24969 21.2202L7.67064 21.6341C7.59562 21.6877 7.49572 21.615 7.52337 21.5272L7.73817 20.8485L7.16557 20.4256C7.09148 20.3708 7.12962 20.2534 7.2218 20.2525L7.93361 20.2471L8.15877 19.5719C8.18781 19.4845 8.31146 19.4845 8.34061 19.5719Z" fill="#F5F5F5"/>
<path d="M8.34061 23.1042L8.56578 23.7794L9.27758 23.7849C9.36977 23.7857 9.40791 23.9032 9.33382 23.9579L8.76122 24.3808L8.97602 25.0595C9.0039 25.1473 8.90376 25.2201 8.82875 25.1664L8.24969 24.7525L7.67064 25.1664C7.59562 25.22 7.49572 25.1473 7.52337 25.0595L7.73817 24.3808L7.16557 23.9579C7.09148 23.9031 7.12962 23.7857 7.2218 23.7849L7.93361 23.7794L8.15877 23.1042C8.18781 23.0167 8.31146 23.0167 8.34061 23.1042Z" fill="#F5F5F5"/>
<path d="M8.34061 26.637L8.56578 27.3122L9.27758 27.3177C9.36977 27.3185 9.40791 27.436 9.33382 27.4907L8.76122 27.9137L8.97602 28.5923C9.0039 28.6801 8.90376 28.7529 8.82875 28.6992L8.24969 28.2853L7.67064 28.6992C7.59562 28.7528 7.49572 28.6801 7.52337 28.5923L7.73817 27.9137L7.16557 27.4907C7.09148 27.4359 7.12962 27.3185 7.2218 27.3177L7.93361 27.3122L8.15877 26.637C8.18781 26.5494 8.31146 26.5494 8.34061 26.637Z" fill="#F5F5F5"/>
<path d="M11.0823 14.2389L11.3075 14.9141L12.0193 14.9195C12.1115 14.9203 12.1496 15.0379 12.0755 15.0926L11.5029 15.5155L11.7177 16.1941C11.7456 16.282 11.6455 16.3548 11.5704 16.3011L10.9914 15.8872L10.4123 16.3011C10.3373 16.3547 10.2374 16.282 10.2651 16.1941L10.4799 15.5155L9.90727 15.0926C9.83317 15.0378 9.87132 14.9203 9.9635 14.9195L10.6753 14.9141L10.9005 14.2389C10.9294 14.1515 11.0532 14.1515 11.0823 14.2389Z" fill="#F5F5F5"/>
<path d="M11.0823 17.7712L11.3075 18.4464L12.0193 18.4518C12.1115 18.4527 12.1496 18.5702 12.0755 18.6249L11.5029 19.0478L11.7177 19.7265C11.7456 19.8143 11.6455 19.8871 11.5704 19.8334L10.9914 19.4195L10.4123 19.8334C10.3373 19.887 10.2374 19.8144 10.2651 19.7265L10.4799 19.0478L9.90727 18.6249C9.83317 18.5701 9.87132 18.4527 9.9635 18.4518L10.6753 18.4464L10.9005 17.7712C10.9294 17.6837 11.0532 17.6837 11.0823 17.7712Z" fill="#F5F5F5"/>
<path d="M11.0823 21.3039L11.3075 21.9791L12.0193 21.9846C12.1115 21.9854 12.1496 22.1029 12.0755 22.1576L11.5029 22.5806L11.7177 23.2592C11.7456 23.347 11.6455 23.4198 11.5704 23.3661L10.9914 22.9522L10.4123 23.3661C10.3373 23.4197 10.2374 23.347 10.2651 23.2592L10.4799 22.5806L9.90727 22.1576C9.83317 22.1028 9.87132 21.9854 9.9635 21.9846L10.6753 21.9791L10.9005 21.3039C10.9294 21.2164 11.0532 21.2164 11.0823 21.3039Z" fill="#F5F5F5"/>
<path d="M11.0823 24.836L11.3075 25.5113L12.0193 25.5167C12.1115 25.5175 12.1496 25.6351 12.0755 25.6898L11.5029 26.1127L11.7177 26.7913C11.7456 26.8791 11.6455 26.952 11.5704 26.8983L10.9914 26.4843L10.4123 26.8983C10.3373 26.9518 10.2374 26.8791 10.2651 26.7913L10.4799 26.1127L9.90727 25.6898C9.83317 25.6349 9.87132 25.5175 9.9635 25.5167L10.6753 25.5113L10.9005 24.836C10.9294 24.7487 11.0532 24.7487 11.0823 24.836Z" fill="#F5F5F5"/>
<path d="M13.8241 12.507L14.0493 13.1823L14.7611 13.1877C14.8533 13.1885 14.8914 13.306 14.8173 13.3608L14.2447 13.7837L14.4595 14.4623C14.4874 14.5501 14.3873 14.6229 14.3123 14.5692L13.7331 14.1553L13.154 14.5692C13.079 14.6228 12.9791 14.5501 13.0068 14.4623L13.2216 13.7837L12.649 13.3608C12.5749 13.3059 12.613 13.1885 12.7052 13.1877L13.417 13.1823L13.6422 12.507C13.6713 12.4195 13.795 12.4195 13.8241 12.507Z" fill="#F5F5F5"/>
<path d="M13.8241 16.0391L14.0493 16.7144L14.7611 16.7198C14.8533 16.7206 14.8914 16.8382 14.8173 16.8929L14.2447 17.3158L14.4595 17.9944C14.4874 18.0822 14.3873 18.1551 14.3123 18.1014L13.7331 17.6875L13.154 18.1014C13.079 18.155 12.9791 18.0822 13.0068 17.9944L13.2216 17.3158L12.649 16.8929C12.5749 16.8381 12.613 16.7206 12.7052 16.7198L13.417 16.7144L13.6422 16.0391C13.6713 15.9518 13.795 15.9518 13.8241 16.0391Z" fill="#F5F5F5"/>
<path d="M13.8241 19.5719L14.0493 20.2471L14.7611 20.2525C14.8533 20.2534 14.8914 20.3709 14.8173 20.4256L14.2447 20.8485L14.4595 21.5272C14.4874 21.615 14.3873 21.6878 14.3123 21.6341L13.7331 21.2202L13.154 21.6341C13.079 21.6877 12.9791 21.615 13.0068 21.5272L13.2216 20.8485L12.649 20.4256C12.5749 20.3708 12.613 20.2534 12.7052 20.2525L13.417 20.2471L13.6422 19.5719C13.6713 19.4845 13.795 19.4845 13.8241 19.5719Z" fill="#F5F5F5"/>
<path d="M13.8241 23.1042L14.0493 23.7794L14.7611 23.7849C14.8533 23.7857 14.8914 23.9032 14.8173 23.9579L14.2447 24.3808L14.4595 25.0595C14.4874 25.1473 14.3873 25.2201 14.3123 25.1664L13.7331 24.7525L13.154 25.1664C13.079 25.22 12.9791 25.1473 13.0068 25.0595L13.2216 24.3808L12.649 23.9579C12.5749 23.9031 12.613 23.7857 12.7052 23.7849L13.417 23.7794L13.6422 23.1042C13.6713 23.0167 13.795 23.0167 13.8241 23.1042Z" fill="#F5F5F5"/>
<path d="M13.8241 26.637L14.0493 27.3122L14.7611 27.3177C14.8533 27.3185 14.8914 27.436 14.8173 27.4907L14.2447 27.9137L14.4595 28.5923C14.4874 28.6801 14.3873 28.7529 14.3123 28.6992L13.7331 28.2853L13.154 28.6992C13.079 28.7528 12.9791 28.6801 13.0068 28.5923L13.2216 27.9137L12.649 27.4907C12.5749 27.4359 12.613 27.3185 12.7052 27.3177L13.417 27.3122L13.6422 26.637C13.6713 26.5494 13.795 26.5494 13.8241 26.637Z" fill="#F5F5F5"/>
<path d="M16.5657 14.2389L16.7909 14.9141L17.5027 14.9195C17.5949 14.9203 17.633 15.0379 17.5589 15.0926L16.9863 15.5155L17.2011 16.1941C17.229 16.282 17.1289 16.3548 17.0538 16.3011L16.4748 15.8872L15.8957 16.3011C15.8207 16.3547 15.7208 16.282 15.7485 16.1941L15.9633 15.5155L15.3907 15.0926C15.3166 15.0378 15.3547 14.9203 15.4469 14.9195L16.1587 14.9141L16.3839 14.2389C16.413 14.1515 16.5366 14.1515 16.5657 14.2389Z" fill="#F5F5F5"/>
<path d="M16.5657 17.7712L16.7909 18.4464L17.5027 18.4518C17.5949 18.4527 17.633 18.5702 17.5589 18.6249L16.9863 19.0478L17.2011 19.7265C17.229 19.8143 17.1289 19.8871 17.0538 19.8334L16.4748 19.4195L15.8957 19.8334C15.8207 19.887 15.7208 19.8144 15.7485 19.7265L15.9633 19.0478L15.3907 18.6249C15.3166 18.5701 15.3547 18.4527 15.4469 18.4518L16.1587 18.4464L16.3839 17.7712C16.413 17.6837 16.5366 17.6837 16.5657 17.7712Z" fill="#F5F5F5"/>
<path d="M16.5657 21.3039L16.7909 21.9791L17.5027 21.9846C17.5949 21.9854 17.633 22.1029 17.5589 22.1576L16.9863 22.5806L17.2011 23.2592C17.229 23.347 17.1289 23.4198 17.0538 23.3661L16.4748 22.9522L15.8957 23.3661C15.8207 23.4197 15.7208 23.347 15.7485 23.2592L15.9633 22.5806L15.3907 22.1576C15.3166 22.1028 15.3547 21.9854 15.4469 21.9846L16.1587 21.9791L16.3839 21.3039C16.413 21.2164 16.5366 21.2164 16.5657 21.3039Z" fill="#F5F5F5"/>
<path d="M16.5657 24.836L16.7909 25.5113L17.5027 25.5167C17.5949 25.5175 17.633 25.6351 17.5589 25.6898L16.9863 26.1127L17.2011 26.7913C17.229 26.8791 17.1289 26.952 17.0538 26.8983L16.4748 26.4843L15.8957 26.8983C15.8207 26.9518 15.7208 26.8791 15.7485 26.7913L15.9633 26.1127L15.3907 25.6898C15.3166 25.6349 15.3547 25.5175 15.4469 25.5167L16.1587 25.5113L16.3839 24.836C16.413 24.7487 16.5366 24.7487 16.5657 24.836Z" fill="#F5F5F5"/>
<path d="M19.3074 12.507L19.5326 13.1823L20.2444 13.1877C20.3366 13.1885 20.3747 13.306 20.3006 13.3608L19.728 13.7837L19.9428 14.4623C19.9707 14.5501 19.8706 14.6229 19.7955 14.5692L19.2165 14.1553L18.6374 14.5692C18.5624 14.6228 18.4625 14.5501 18.4902 14.4623L18.705 13.7837L18.1324 13.3608C18.0583 13.3059 18.0964 13.1885 18.1886 13.1877L18.9004 13.1823L19.1256 12.507C19.1545 12.4195 19.2783 12.4195 19.3074 12.507Z" fill="#F5F5F5"/>
<path d="M19.3074 16.0391L19.5326 16.7144L20.2444 16.7198C20.3366 16.7206 20.3747 16.8382 20.3006 16.8929L19.728 17.3158L19.9428 17.9944C19.9707 18.0822 19.8706 18.1551 19.7955 18.1014L19.2165 17.6875L18.6374 18.1014C18.5624 18.155 18.4625 18.0822 18.4902 17.9944L18.705 17.3158L18.1324 16.8929C18.0583 16.8381 18.0964 16.7206 18.1886 16.7198L18.9004 16.7144L19.1256 16.0391C19.1545 15.9518 19.2783 15.9518 19.3074 16.0391Z" fill="#F5F5F5"/>
<path d="M19.3074 19.5719L19.5326 20.2471L20.2444 20.2525C20.3366 20.2534 20.3747 20.3709 20.3006 20.4256L19.728 20.8485L19.9428 21.5272C19.9707 21.615 19.8706 21.6878 19.7955 21.6341L19.2165 21.2202L18.6374 21.6341C18.5624 21.6877 18.4625 21.615 18.4902 21.5272L18.705 20.8485L18.1324 20.4256C18.0583 20.3708 18.0964 20.2534 18.1886 20.2525L18.9004 20.2471L19.1256 19.5719C19.1545 19.4845 19.2783 19.4845 19.3074 19.5719Z" fill="#F5F5F5"/>
<path d="M19.3074 23.1042L19.5326 23.7794L20.2444 23.7849C20.3366 23.7857 20.3747 23.9032 20.3006 23.9579L19.728 24.3808L19.9428 25.0595C19.9707 25.1473 19.8706 25.2201 19.7955 25.1664L19.2165 24.7525L18.6374 25.1664C18.5624 25.22 18.4625 25.1473 18.4902 25.0595L18.705 24.3808L18.1324 23.9579C18.0583 23.9031 18.0964 23.7857 18.1886 23.7849L18.9004 23.7794L19.1256 23.1042C19.1545 23.0167 19.2783 23.0167 19.3074 23.1042Z" fill="#F5F5F5"/>
<path d="M19.3074 26.637L19.5326 27.3122L20.2444 27.3177C20.3366 27.3185 20.3747 27.436 20.3006 27.4907L19.728 27.9137L19.9428 28.5923C19.9707 28.6801 19.8706 28.7529 19.7955 28.6992L19.2165 28.2853L18.6374 28.6992C18.5624 28.7528 18.4625 28.6801 18.4902 28.5923L18.705 27.9137L18.1324 27.4907C18.0583 27.4359 18.0964 27.3185 18.1886 27.3177L18.9004 27.3122L19.1256 26.637C19.1545 26.5494 19.2783 26.5494 19.3074 26.637Z" fill="#F5F5F5"/>
<path d="M22.0496 14.2389L22.2748 14.9141L22.9866 14.9195C23.0787 14.9203 23.1169 15.0379 23.0428 15.0926L22.4702 15.5155L22.685 16.1941C22.7129 16.282 22.6127 16.3548 22.5377 16.3011L21.9587 15.8872L21.3796 16.3011C21.3046 16.3547 21.2047 16.282 21.2324 16.1941L21.4472 15.5155L20.8746 15.0926C20.8005 15.0378 20.8386 14.9203 20.9308 14.9195L21.6426 14.9141L21.8678 14.2389C21.8968 14.1515 22.0206 14.1515 22.0496 14.2389Z" fill="#F5F5F5"/>
<path d="M22.0496 17.7712L22.2748 18.4464L22.9866 18.4518C23.0787 18.4527 23.1169 18.5702 23.0428 18.6249L22.4702 19.0478L22.685 19.7265C22.7129 19.8143 22.6127 19.8871 22.5377 19.8334L21.9587 19.4195L21.3796 19.8334C21.3046 19.887 21.2047 19.8144 21.2324 19.7265L21.4472 19.0478L20.8746 18.6249C20.8005 18.5701 20.8386 18.4527 20.9308 18.4518L21.6426 18.4464L21.8678 17.7712C21.8968 17.6837 22.0206 17.6837 22.0496 17.7712Z" fill="#F5F5F5"/>
<path d="M22.0496 21.3039L22.2748 21.9791L22.9866 21.9846C23.0787 21.9854 23.1169 22.1029 23.0428 22.1576L22.4702 22.5806L22.685 23.2592C22.7129 23.347 22.6127 23.4198 22.5377 23.3661L21.9587 22.9522L21.3796 23.3661C21.3046 23.4197 21.2047 23.347 21.2324 23.2592L21.4472 22.5806L20.8746 22.1576C20.8005 22.1028 20.8386 21.9854 20.9308 21.9846L21.6426 21.9791L21.8678 21.3039C21.8968 21.2164 22.0206 21.2164 22.0496 21.3039Z" fill="#F5F5F5"/>
<path d="M22.0496 24.836L22.2748 25.5113L22.9866 25.5167C23.0787 25.5175 23.1169 25.6351 23.0428 25.6898L22.4702 26.1127L22.685 26.7913C22.7129 26.8791 22.6127 26.952 22.5377 26.8983L21.9587 26.4843L21.3796 26.8983C21.3046 26.9518 21.2047 26.8791 21.2324 26.7913L21.4472 26.1127L20.8746 25.6898C20.8005 25.6349 20.8386 25.5175 20.9308 25.5167L21.6426 25.5113L21.8678 24.836C21.8968 24.7487 22.0206 24.7487 22.0496 24.836Z" fill="#F5F5F5"/>
<path d="M24.7913 12.507L25.0165 13.1823L25.7283 13.1877C25.8205 13.1885 25.8586 13.306 25.7845 13.3608L25.2119 13.7837L25.4267 14.4623C25.4546 14.5501 25.3544 14.6229 25.2794 14.5692L24.7004 14.1553L24.1213 14.5692C24.0463 14.6228 23.9464 14.5501 23.9741 14.4623L24.1889 13.7837L23.6163 13.3608C23.5422 13.3059 23.5803 13.1885 23.6725 13.1877L24.3843 13.1823L24.6095 12.507C24.6385 12.4195 24.762 12.4195 24.7913 12.507Z" fill="#F5F5F5"/>
<path d="M24.7913 16.0391L25.0165 16.7144L25.7283 16.7198C25.8205 16.7206 25.8586 16.8382 25.7845 16.8929L25.2119 17.3158L25.4267 17.9944C25.4546 18.0822 25.3544 18.1551 25.2794 18.1014L24.7004 17.6875L24.1213 18.1014C24.0463 18.155 23.9464 18.0822 23.9741 17.9944L24.1889 17.3158L23.6163 16.8929C23.5422 16.8381 23.5803 16.7206 23.6725 16.7198L24.3843 16.7144L24.6095 16.0391C24.6385 15.9518 24.762 15.9518 24.7913 16.0391Z" fill="#F5F5F5"/>
<path d="M24.7913 19.5719L25.0165 20.2471L25.7283 20.2525C25.8205 20.2534 25.8586 20.3709 25.7845 20.4256L25.2119 20.8485L25.4267 21.5272C25.4546 21.615 25.3544 21.6878 25.2794 21.6341L24.7004 21.2202L24.1213 21.6341C24.0463 21.6877 23.9464 21.615 23.9741 21.5272L24.1889 20.8485L23.6163 20.4256C23.5422 20.3708 23.5803 20.2534 23.6725 20.2525L24.3843 20.2471L24.6095 19.5719C24.6385 19.4845 24.762 19.4845 24.7913 19.5719Z" fill="#F5F5F5"/>
<path d="M24.7913 23.1042L25.0165 23.7794L25.7283 23.7849C25.8205 23.7857 25.8586 23.9032 25.7845 23.9579L25.2119 24.3808L25.4267 25.0595C25.4546 25.1473 25.3544 25.2201 25.2794 25.1664L24.7004 24.7525L24.1213 25.1664C24.0463 25.22 23.9464 25.1473 23.9741 25.0595L24.1889 24.3808L23.6163 23.9579C23.5422 23.9031 23.5803 23.7857 23.6725 23.7849L24.3843 23.7794L24.6095 23.1042C24.6385 23.0167 24.762 23.0167 24.7913 23.1042Z" fill="#F5F5F5"/>
<path d="M24.7913 26.637L25.0165 27.3122L25.7283 27.3177C25.8205 27.3185 25.8586 27.436 25.7845 27.4907L25.2119 27.9137L25.4267 28.5923C25.4546 28.6801 25.3544 28.7529 25.2794 28.6992L24.7004 28.2853L24.1213 28.6992C24.0463 28.7528 23.9464 28.6801 23.9741 28.5923L24.1889 27.9137L23.6163 27.4907C23.5422 27.4359 23.5803 27.3185 23.6725 27.3177L24.3843 27.3122L24.6095 26.637C24.6385 26.5494 24.762 26.5494 24.7913 26.637Z" fill="#F5F5F5"/>
</svg>
